<?xml version="1.0" encoding="utf-8"?>
<!-- Generator: Adobe Illustrator 20.0.0, SVG Export Plug-In . SVG Version: 6.00 Build 0)  -->
<svg version="1.1" id="Layer_1" xmlns="http://www.w3.org/2000/svg" xmlns:xlink="http://www.w3.org/1999/xlink" x="0px" y="0px"
	 viewBox="0 0 229.93 440.15" style="enable-background:new 0 0 229.93 440.15;" xml:space="preserve">
<style type="text/css">
	.st0{fill-rule:evenodd;clip-rule:evenodd;}
</style>
<g>
	<path class="st0" d="M113.29,206.12c-23.69,0-45.94-9.2-62.65-25.9c-16.71-16.79-25.91-39.04-25.91-62.65
		c0-23.61,9.2-45.86,25.9-62.65c16.79-16.71,39.04-25.91,62.65-25.91s45.86,9.2,62.65,25.9c16.71,16.79,25.91,39.04,25.91,62.65
		c0,23.61-9.2,45.86-25.91,62.65C159.23,196.92,136.98,206.12,113.29,206.12 M178.81,52.12c-17.58-17.49-40.85-27.12-65.53-27.12
		c-24.68,0-47.95,9.63-65.53,27.12c-17.49,17.49-27.12,40.73-27.12,65.44c0,24.77,9.63,48.04,27.12,65.53
		c17.58,17.49,40.85,27.12,65.53,27.12c24.68,0,47.95-9.63,65.53-27.12c17.49-17.49,27.12-40.76,27.12-65.53
		C205.94,92.85,196.31,69.61,178.81,52.12z"/>
</g>
<g>
	<path class="st0" d="M30.08,110.33L30.08,110.33v-0.08c0.41-4.77,1.23-9.37,2.47-13.89l0.08-0.25c0-0.25,0.08-0.49,0.16-0.74
		l0.08-0.25c0-0.25,0.08-0.49,0.16-0.66l0.08-0.33c0.08-0.25,0.16-0.49,0.25-0.74v-0.08l0.08-0.25c0.08-0.16,0.08-0.33,0.16-0.49
		l0.08-0.33l0.08-0.25l0.08-0.25l0.08-0.25v-0.08l0.08-0.25l0.08-0.08c0.08-0.16,0.08-0.41,0.16-0.66l0.08-0.08l0.08-0.25l0.16-0.58
		l0.08-0.25l0.08-0.08c0.08-0.25,0.16-0.41,0.25-0.66v-0.08l0.08-0.25c0.08-0.25,0.16-0.41,0.25-0.66l0.08-0.25
		c0.16-0.25,0.25-0.49,0.33-0.66v-0.08l0.08-0.25l0.25-0.58l0.16-0.41l0.25-0.49l0.16-0.41c0.08-0.25,0.16-0.41,0.25-0.66l0.16-0.25
		c0.08-0.16,0.16-0.41,0.25-0.66l0.16-0.25l0.25-0.58l0.16-0.41c0.08-0.16,0.16-0.33,0.25-0.49l0.25-0.41
		c0.08-0.16,0.16-0.33,0.25-0.58l0.16-0.33c0.08-0.16,0.16-0.33,0.25-0.58l0.08,0L39.22,79l0.08-0.08l0.25-0.49l0.16-0.33
		c0.08-0.16,0.25-0.41,0.33-0.58l0.16-0.41l0.33-0.41l0.25-0.49c0.08-0.08,0.16-0.25,0.25-0.41l0.16-0.41
		c0.16-0.16,0.25-0.33,0.33-0.49l1.07-1.81v0.08c3.37-5.34,7.23-10.2,11.67-14.63C69.39,43.4,90.28,34.11,113.3,34.11
		c23.02,0,43.9,9.29,59.03,24.42c15.13,15.13,24.42,36.01,24.42,59.03c0,23.1-9.29,43.9-24.42,59.03
		c-15.13,15.13-36.01,24.5-59.03,24.5c-23.02,0-43.9-9.37-59.03-24.5c-4.44-4.44-8.3-9.29-11.67-14.63v0.08l-1.07-1.81
		c-0.08-0.16-0.16-0.33-0.33-0.49v-0.08l-0.16-0.25c-0.08-0.25-0.25-0.41-0.33-0.66l-0.08-0.08l-0.16-0.25l-0.25-0.41l-0.16-0.33
		c-0.08-0.25-0.25-0.41-0.33-0.58v-0.08l-0.16-0.25c-0.08-0.25-0.25-0.49-0.33-0.74l-0.08,0c-3.86-7.48-6.66-15.62-8.14-24.17v-0.25
		c-0.08-0.25-0.08-0.49-0.16-0.74v-0.08v-0.25l-0.08-0.58l-0.08-0.25v-0.08c0-0.25-0.08-0.49-0.08-0.74v-0.08l-0.08-0.25
		c0-0.25,0-0.49-0.08-0.74v-0.08v-0.33c-0.08-0.25-0.08-0.49-0.08-0.74l-0.08-0.08v-0.49v-0.16c-0.33-2.8-0.41-5.51-0.41-8.39
		C29.84,115.18,29.92,112.71,30.08,110.33 M41.35,109.18V77.6c-5.26,9.54-8.72,20.14-9.87,31.57H41.35z M185.14,77.6v31.57h9.95
		c-0.58-5.92-1.81-11.59-3.62-17.1C189.83,87.06,187.69,82.21,185.14,77.6z M195.01,127.18h-9.87v30.34
		c2.47-4.36,4.52-9.04,6.17-13.89C193.12,138.36,194.35,132.85,195.01,127.18z M184.57,125.95h10.61c0.25-2.8,0.41-5.51,0.41-8.39
		c0-2.38-0.16-4.85-0.33-7.23h-10.69h-0.58v-0.58V75.47c-3.54-5.92-7.73-11.26-12.5-16.03c-14.96-14.96-35.52-24.17-58.21-24.17
		c-22.69,0-43.33,9.21-58.21,24.17c-4.77,4.77-8.96,10.2-12.5,16.03v34.28v0.58h-0.58H31.32c-0.16,2.38-0.33,4.85-0.33,7.24
		c0,2.88,0.16,5.59,0.41,8.39h10.61h0.58v0.58v33.13c3.54,5.84,7.73,11.26,12.5,16.11c14.88,14.88,35.52,24.09,58.21,24.09
		c22.69,0,43.25-9.21,58.21-24.09c4.77-4.85,8.96-10.2,12.5-16.03v-33.22v-0.58L184.57,125.95L184.57,125.95z M41.35,127.18h-9.78
		c1.23,10.94,4.69,21.21,9.78,30.34L41.35,127.18L41.35,127.18z"/>
</g>
<g>
	<path class="st0" d="M83.03,117.56c0-6.58-5.34-11.92-11.92-11.92c-6.58,0-11.92,5.34-11.92,11.92c0,6.58,5.34,11.92,11.92,11.92
		C77.69,129.48,83.03,124.15,83.03,117.56"/>
</g>
<g>
	<path class="st0" d="M167.39,117.56c0-6.58-5.34-11.92-11.92-11.92c-6.58,0-11.92,5.34-11.92,11.92c0,6.58,5.34,11.92,11.92,11.92
		C162.05,129.48,167.39,124.15,167.39,117.56"/>
</g>
<g>
	<path d="M219.69,440.15H10.24C4.6,440.15,0,435.56,0,429.91V10.24C0,4.6,4.6,0,10.24,0h209.44c5.65,0,10.25,4.6,10.25,10.24v419.66
		C229.93,435.56,225.34,440.15,219.69,440.15z M10.24,4.25c-3.3,0-5.99,2.69-5.99,5.99v419.66c0,3.3,2.69,5.99,5.99,5.99h209.44
		c3.3,0,5.99-2.69,5.99-5.99V10.24c0-3.3-2.69-5.99-5.99-5.99H10.24z"/>
</g>
<g>
	<path d="M219.69,432.87H10.24c-1.6,0-2.96-1.35-2.96-2.96V10.24c0-1.6,1.36-2.96,2.96-2.96h209.44c1.6,0,2.96,1.36,2.96,2.96
		v419.66C222.65,431.51,221.29,432.87,219.69,432.87z M10.24,8.31c-1.05,0-1.94,0.89-1.94,1.94v419.66c0,1.05,0.89,1.94,1.94,1.94
		h209.44c1.05,0,1.94-0.89,1.94-1.94V10.24c0-1.05-0.89-1.94-1.94-1.94H10.24z"/>
</g>
<g>
	<path class="st0" d="M113.29,206.12c-23.69,0-45.94-9.2-62.65-25.9c-16.71-16.79-25.91-39.04-25.91-62.65
		c0-23.61,9.2-45.86,25.9-62.65c16.79-16.71,39.04-25.91,62.65-25.91s45.86,9.2,62.65,25.9c16.71,16.79,25.91,39.04,25.91,62.65
		c0,23.61-9.2,45.86-25.91,62.65C159.23,196.92,136.98,206.12,113.29,206.12 M178.81,52.12c-17.58-17.49-40.85-27.12-65.53-27.12
		c-24.68,0-47.95,9.63-65.53,27.12c-17.49,17.49-27.12,40.73-27.12,65.44c0,24.77,9.63,48.04,27.12,65.53
		c17.58,17.49,40.85,27.12,65.53,27.12c24.68,0,47.95-9.63,65.53-27.12c17.49-17.49,27.12-40.76,27.12-65.53
		C205.94,92.85,196.31,69.61,178.81,52.12z"/>
</g>
<g>
	<path class="st0" d="M83.03,117.56c0-6.58-5.34-11.92-11.92-11.92c-6.58,0-11.92,5.34-11.92,11.92c0,6.58,5.34,11.92,11.92,11.92
		C77.69,129.48,83.03,124.15,83.03,117.56"/>
</g>
<g>
	<path class="st0" d="M167.39,117.56c0-6.58-5.34-11.92-11.92-11.92c-6.58,0-11.92,5.34-11.92,11.92c0,6.58,5.34,11.92,11.92,11.92
		C162.05,129.48,167.39,124.15,167.39,117.56"/>
</g>
<g>
	<path d="M123.52,409.38h-12.83c-2.07,0-3.76-1.69-3.76-3.76v-66.63c0-5.61,4.56-10.17,10.18-10.17c5.61,0,10.17,4.56,10.17,10.17
		v66.63C127.28,407.69,125.59,409.38,123.52,409.38z M117.1,330.95c-4.44,0-8.05,3.61-8.05,8.05v66.63c0,0.9,0.73,1.63,1.63,1.63
		h12.83c0.9,0,1.63-0.73,1.63-1.63v-66.63C125.15,334.56,121.54,330.95,117.1,330.95z"/>
</g>
<g>
	<path d="M122.67,399.92h-11.14c-0.73,0-1.32-0.59-1.32-1.32v-25.64c0-0.73,0.59-1.32,1.32-1.32h11.14c0.73,0,1.32,0.59,1.32,1.32
		v25.64C124,399.33,123.4,399.92,122.67,399.92z M111.54,372.65c-0.17,0-0.3,0.14-0.3,0.3v25.64c0,0.17,0.14,0.3,0.3,0.3h11.14
		c0.16,0,0.3-0.14,0.3-0.3v-25.64c0-0.16-0.14-0.3-0.3-0.3H111.54z"/>
</g>
<g>
	<path d="M117.1,361.78c-4.1,0-7.44-3.34-7.44-7.44v-15.75c0-4.1,3.34-7.44,7.44-7.44c4.1,0,7.44,3.34,7.44,7.44v15.75
		C124.54,358.44,121.21,361.78,117.1,361.78z M117.1,332.17c-3.54,0-6.42,2.88-6.42,6.42v15.75c0,3.54,2.88,6.42,6.42,6.42h0
		c3.54,0,6.42-2.88,6.42-6.42v-15.75C123.52,335.05,120.64,332.17,117.1,332.17z"/>
</g>
<g>
	<path class="st0" d="M148.41,268.38c-1.14,1.06-2.08,1.77-3.16,2.29c1.01-0.99,1.88-2.08,2.7-3.24c3.22-4.97,4.97-10.26,3.39-16.23
		c-0.61-2.3-2.33-4.48-4.47-5.48c1.75-0.19,3.33,0.12,4.61,0.75C157.66,250.35,155.75,260.88,148.41,268.38 M133.42,268.41
		c0.08,0.32,0.16,0.64,0.26,0.94c-0.8,0.65-1.56,1.13-2.42,1.49C132.06,270.09,132.76,269.27,133.42,268.41z M137.53,251.19
		c-0.61-2.29-2.31-4.45-4.43-5.46c1.59-0.19,3.04,0.01,4.26,0.5c-0.47,0.22-0.94,0.47-1.4,0.75c0.53-0.27,1.06-0.5,1.57-0.68
		c0.12,0.05,0.23,0.1,0.34,0.15c6.17,3.89,4.27,14.41-3.05,21.91c-0.18-0.38-0.35-0.79-0.49-1.22
		C137.43,262.25,139.09,257.05,137.53,251.19z M144.16,246.24c-0.47,0.22-0.94,0.47-1.4,0.75c0.53-0.27,1.06-0.5,1.57-0.68
		c0.12,0.05,0.23,0.1,0.34,0.15c6.18,3.89,4.27,14.42-3.07,21.92c-1.14,1.06-2.08,1.77-3.16,2.29c1.01-0.99,1.88-2.08,2.7-3.24
		c3.22-4.97,4.97-10.26,3.39-16.23c-0.61-2.3-2.33-4.48-4.47-5.48C141.59,245.55,142.98,245.76,144.16,246.24z M158.15,251.19
		c-0.64-2.4-2.49-4.68-4.77-5.61c-1.9-0.72-4.47-0.87-7.14-0.12c-1.86-0.62-4.29-0.72-6.81,0c-1.89-0.62-4.36-0.72-6.91,0.03
		c-2.72-0.93-6.69-0.76-10.38,1.5c3.19-1.64,6.13-1.63,8.32-0.71c-0.44,0.21-0.88,0.45-1.32,0.71c0.49-0.25,0.98-0.47,1.46-0.64
		c0.08,0.04,0.17,0.07,0.25,0.12c6.14,3.86,4.29,14.28-2.93,21.77c-0.94-2.02-1.26-4.9-0.95-8.64c-0.97,3.87-0.94,7.12-0.14,9.63
		c-1.03,0.86-1.97,1.43-3.14,1.84c-2.83-1.48-4.04-5.31-3.53-11.47c-1.33,5.28-0.79,9.41,1.03,12.08
		c-5.97,0.76-8.76-3.28-8.03-12.08c-2.88,11.47,3.03,17.5,11.7,14.99c1.94,0.73,4.29,0.76,6.89,0.03c1.92,0.7,4.24,0.72,6.81,0
		c2,0.73,4.44,0.73,7.13-0.09c4.44-1.52,6.91-4.05,9.05-7.09C157.98,262.45,159.73,257.17,158.15,251.19z"/>
</g>
<g>
	<path class="st0" d="M77.26,261.55c0.15-0.72,0.87-1.08,2.15-1.08c1.28,0,1.93,0.36,1.93,1.08L77.26,261.55L77.26,261.55z
		 M82.12,260.44c-0.61-0.33-1.48-0.5-2.6-0.5c-1.18,0-2.15,0.19-2.91,0.56c-0.76,0.37-1.14,0.85-1.14,1.44
		c0,0.6,0.43,1.09,1.29,1.48c0.86,0.38,1.98,0.57,3.34,0.57c0.8,0,1.77-0.07,2.89-0.21v-0.56c-1.02,0.16-1.88,0.23-2.58,0.23
		c-1.91,0-2.99-0.46-3.23-1.38h5.84l0.01-0.22C83.03,261.24,82.73,260.77,82.12,260.44z"/>
</g>
<g>
	<path class="st0" d="M90.46,263.03c-0.76,0.26-1.48,0.39-2.18,0.39c-0.41,0-0.76-0.06-1.04-0.18c-0.29-0.12-0.43-0.26-0.43-0.43
		c0-0.24,0.29-0.43,0.85-0.58c0.57-0.15,1.31-0.22,2.23-0.22l0.56,0.01L90.46,263.03L90.46,263.03z M93.03,263.5
		c-0.59,0-0.89-0.2-0.89-0.6v-1.75c0-0.41-0.25-0.72-0.74-0.91c-0.49-0.19-1.26-0.29-2.29-0.29c-0.99,0-2.05,0.1-3.18,0.29v0.58
		c1.03-0.23,1.99-0.34,2.87-0.34c1.1,0,1.65,0.23,1.65,0.68v0.47h-0.4c-1.59,0-2.81,0.12-3.65,0.34c-0.85,0.23-1.28,0.55-1.28,0.97
		c0,0.31,0.25,0.56,0.76,0.76c0.5,0.2,1.14,0.3,1.91,0.3c0.93,0,1.9-0.19,2.91-0.58c0.21,0.39,0.72,0.58,1.5,0.58
		c0.46,0,0.88-0.04,1.26-0.12l-0.12-0.39C93.21,263.49,93.11,263.5,93.03,263.5z"/>
</g>
<g>
	<path class="st0" d="M100.9,262.15c-0.38-0.18-1.03-0.35-1.94-0.51l-0.81-0.14c-0.82-0.15-1.23-0.32-1.23-0.54
		c0-0.33,0.54-0.49,1.62-0.49c0.55,0,1.3,0.06,2.23,0.17v-0.58l-0.35-0.03c-0.76-0.06-1.4-0.09-1.92-0.09
		c-0.99,0-1.78,0.1-2.35,0.29c-0.57,0.2-0.86,0.46-0.86,0.8c0,0.47,0.72,0.84,2.17,1.09l0.98,0.17c0.89,0.16,1.34,0.35,1.34,0.6
		c0,0.16-0.16,0.3-0.48,0.41c-0.32,0.11-0.72,0.16-1.2,0.16c-0.81,0-1.77-0.12-2.87-0.34v0.64c1.1,0.15,2.03,0.23,2.8,0.23
		c1,0,1.82-0.11,2.47-0.33c0.64-0.22,0.96-0.5,0.96-0.84C101.47,262.56,101.28,262.33,100.9,262.15"/>
</g>
<g>
	<polygon class="st0" points="107.41,262.95 104.76,260.03 102.94,260.03 106.52,263.9 105.03,265.31 106.78,265.31 111.83,260.03
		110.25,260.03 	"/>
</g>
<g>
	<polygon class="st0" points="86.59,256.4 86.59,250.81 83.98,250.81 83.98,253.08 78.81,253.08 78.81,250.81 76.21,250.81
		76.21,256.4 78.81,256.4 78.81,253.85 83.98,253.85 83.98,256.4 	"/>
</g>
<g>
	<path class="st0" d="M97.89,255.18c-0.65,0.39-1.53,0.59-2.65,0.59c-1.06,0-1.91-0.2-2.56-0.6c-0.65-0.4-0.97-0.92-0.97-1.57
		c0-0.66,0.33-1.18,0.98-1.57c0.65-0.39,1.52-0.59,2.61-0.59c1.08,0,1.94,0.19,2.6,0.59c0.65,0.39,0.98,0.91,0.98,1.56
		C98.86,254.26,98.54,254.79,97.89,255.18 M99.91,251.46c-1.15-0.53-2.69-0.79-4.62-0.79c-1.94,0-3.49,0.26-4.63,0.79
		c-1.14,0.53-1.72,1.24-1.72,2.14c0,0.89,0.57,1.6,1.71,2.13c1.14,0.53,2.66,0.8,4.56,0.8c1.99,0,3.56-0.26,4.7-0.79
		c1.15-0.52,1.72-1.24,1.72-2.15C101.63,252.7,101.05,251.99,99.91,251.46z"/>
</g>
<g>
	<polygon class="st0" points="106.02,252.12 109.01,256.02 111.1,256.02 114.16,252.18 114.16,256.4 116.56,256.4 116.56,250.81
		113.53,250.81 110.43,254.74 107.42,250.81 103.97,250.81 103.97,256.4 106.02,256.4 	"/>
</g>
<g>
	<polygon class="st0" points="127.9,255.61 122.29,255.61 122.29,253.89 126.57,253.89 126.57,253.14 122.29,253.14 122.29,251.58
		127.5,251.58 127.5,250.81 119.68,250.81 119.68,256.4 127.9,256.4 	"/>
</g>
<g>
	<path d="M75.47,292.49l1.15-0.16c0.13,0.65,0.36,1.13,0.67,1.41c0.32,0.29,0.7,0.43,1.17,0.43c0.55,0,1.01-0.19,1.38-0.56
		c0.37-0.38,0.56-0.84,0.56-1.39c0-0.53-0.17-0.96-0.52-1.31c-0.34-0.34-0.78-0.51-1.32-0.51c-0.22,0-0.49,0.04-0.81,0.13l0.13-1.01
		c0.08,0.01,0.14,0.01,0.19,0.01c0.49,0,0.93-0.13,1.33-0.38c0.39-0.26,0.59-0.65,0.59-1.18c0-0.42-0.14-0.77-0.43-1.05
		c-0.29-0.28-0.65-0.41-1.11-0.41c-0.45,0-0.82,0.14-1.12,0.43c-0.3,0.28-0.49,0.71-0.58,1.28L75.59,288
		c0.14-0.77,0.46-1.37,0.96-1.8c0.5-0.43,1.12-0.64,1.86-0.64c0.51,0,0.98,0.11,1.41,0.33c0.43,0.22,0.76,0.52,0.99,0.89
		c0.23,0.38,0.34,0.78,0.34,1.21c0,0.4-0.11,0.77-0.32,1.1c-0.22,0.33-0.54,0.6-0.97,0.79c0.55,0.13,0.98,0.39,1.29,0.8
		c0.31,0.4,0.46,0.91,0.46,1.51c0,0.82-0.3,1.51-0.89,2.08c-0.6,0.57-1.35,0.85-2.26,0.85c-0.82,0-1.51-0.25-2.05-0.74
		C75.86,293.9,75.55,293.27,75.47,292.49"/>
</g>
<g>
	<path d="M83.93,290.35c0,1.54,0.18,2.57,0.54,3.07c0.36,0.51,0.81,0.76,1.33,0.76c0.53,0,0.97-0.26,1.33-0.76
		c0.36-0.51,0.54-1.53,0.54-3.07c0-1.54-0.18-2.57-0.54-3.07c-0.36-0.51-0.81-0.76-1.35-0.76c-0.53,0-0.95,0.22-1.27,0.67
		C84.12,287.76,83.93,288.81,83.93,290.35 M82.75,290.35c0-1.11,0.11-2,0.34-2.68c0.23-0.68,0.57-1.2,1.02-1.56
		c0.45-0.36,1.01-0.55,1.69-0.55c0.5,0,0.94,0.1,1.32,0.3c0.38,0.2,0.69,0.5,0.94,0.88c0.24,0.38,0.44,0.84,0.58,1.39
		c0.14,0.55,0.21,1.29,0.21,2.21c0,1.1-0.11,1.99-0.34,2.67c-0.22,0.68-0.56,1.2-1.01,1.57c-0.45,0.37-1.01,0.55-1.7,0.55
		c-0.9,0-1.61-0.32-2.12-0.96C83.06,293.38,82.75,292.11,82.75,290.35z"/>
</g>
<g>
	<path d="M91.21,290.35c0,1.54,0.18,2.57,0.54,3.07c0.36,0.51,0.81,0.76,1.33,0.76c0.53,0,0.97-0.26,1.33-0.76
		c0.36-0.51,0.54-1.53,0.54-3.07c0-1.54-0.18-2.57-0.54-3.07c-0.36-0.51-0.81-0.76-1.35-0.76c-0.53,0-0.95,0.22-1.27,0.67
		C91.4,287.76,91.21,288.81,91.21,290.35 M90.03,290.35c0-1.11,0.11-2,0.34-2.68c0.23-0.68,0.57-1.2,1.02-1.56
		c0.45-0.36,1.01-0.55,1.69-0.55c0.5,0,0.94,0.1,1.32,0.3c0.38,0.2,0.69,0.5,0.94,0.88c0.24,0.38,0.44,0.84,0.58,1.39
		c0.14,0.55,0.21,1.29,0.21,2.21c0,1.1-0.11,1.99-0.34,2.67c-0.22,0.68-0.56,1.2-1.01,1.57c-0.45,0.37-1.01,0.55-1.7,0.55
		c-0.9,0-1.61-0.32-2.12-0.96C90.34,293.38,90.03,292.11,90.03,290.35z"/>
</g>
<g>
	<path d="M99.38,294.97l-2.47-9.37h1.29l1.4,6.15c0.15,0.64,0.29,1.28,0.4,1.92c0.25-1,0.39-1.58,0.43-1.73l1.77-6.33h1.49
		l1.34,4.74c0.33,1.18,0.57,2.28,0.73,3.32c0.12-0.59,0.28-1.27,0.48-2.04l1.46-6.03h1.25l-2.57,9.37h-1.21l-1.97-7.14
		c-0.17-0.6-0.27-0.96-0.3-1.1c-0.11,0.43-0.2,0.79-0.29,1.1l-1.97,7.14H99.38z"/>
</g>
<g>
	<path d="M115,293.87h2c0.62,0,1.1-0.06,1.45-0.17c0.35-0.12,0.63-0.28,0.84-0.49c0.29-0.29,0.52-0.69,0.68-1.19
		c0.16-0.5,0.25-1.1,0.25-1.81c0-0.98-0.16-1.74-0.48-2.26c-0.32-0.53-0.71-0.88-1.17-1.06c-0.33-0.13-0.87-0.19-1.6-0.19H115
		V293.87z M113.76,294.97v-9.37h3.23c0.73,0,1.28,0.04,1.67,0.13c0.54,0.12,0.99,0.35,1.37,0.67c0.5,0.42,0.86,0.95,1.11,1.6
		c0.25,0.65,0.37,1.39,0.37,2.23c0,0.71-0.08,1.34-0.25,1.89c-0.17,0.55-0.38,1.01-0.64,1.37c-0.26,0.36-0.55,0.64-0.86,0.85
		c-0.31,0.21-0.68,0.36-1.12,0.47c-0.44,0.11-0.94,0.16-1.51,0.16H113.76z"/>
</g>
<g>
	<path d="M123.07,294.97v-6.79h1.15v6.79H123.07z M123.07,286.91v-1.31h1.15v1.31H123.07z"/>
</g>
<g>
	<path d="M125.97,294.97v-6.79h1.03v0.96c0.21-0.33,0.5-0.6,0.85-0.8c0.35-0.2,0.75-0.3,1.21-0.3c0.5,0,0.91,0.1,1.23,0.31
		c0.32,0.21,0.55,0.5,0.68,0.87c0.54-0.79,1.24-1.19,2.11-1.19c0.68,0,1.2,0.19,1.56,0.56c0.36,0.37,0.55,0.95,0.55,1.72v4.66h-1.15
		v-4.28c0-0.46-0.04-0.79-0.11-0.99c-0.07-0.2-0.21-0.36-0.41-0.49c-0.2-0.12-0.43-0.19-0.69-0.19c-0.48,0-0.88,0.16-1.19,0.48
		c-0.32,0.32-0.47,0.83-0.47,1.52v3.94h-1.15v-4.41c0-0.51-0.09-0.89-0.28-1.15c-0.19-0.26-0.5-0.38-0.92-0.38
		c-0.32,0-0.62,0.09-0.9,0.26c-0.27,0.17-0.47,0.42-0.6,0.75c-0.12,0.33-0.18,0.8-0.18,1.42v3.52H125.97z"/>
</g>
<g>
	<path d="M136.88,294.97v-6.79h1.03v0.96c0.21-0.33,0.5-0.6,0.85-0.8c0.35-0.2,0.75-0.3,1.21-0.3c0.5,0,0.91,0.1,1.23,0.31
		c0.32,0.21,0.55,0.5,0.68,0.87c0.54-0.79,1.24-1.19,2.11-1.19c0.68,0,1.2,0.19,1.56,0.56c0.36,0.37,0.55,0.95,0.55,1.72v4.66h-1.15
		v-4.28c0-0.46-0.04-0.79-0.11-0.99c-0.07-0.2-0.21-0.36-0.41-0.49c-0.2-0.12-0.43-0.19-0.69-0.19c-0.48,0-0.88,0.16-1.19,0.48
		c-0.32,0.32-0.47,0.83-0.47,1.52v3.94h-1.15v-4.41c0-0.51-0.09-0.89-0.28-1.15c-0.19-0.26-0.5-0.38-0.92-0.38
		c-0.32,0-0.62,0.09-0.9,0.26c-0.27,0.17-0.47,0.42-0.6,0.75c-0.12,0.33-0.18,0.8-0.18,1.42v3.52H136.88z"/>
</g>
<g>
	<path d="M148.65,290.93h3.78c-0.05-0.57-0.2-1-0.43-1.28c-0.36-0.44-0.84-0.67-1.42-0.67c-0.53,0-0.97,0.18-1.33,0.53
		C148.88,289.86,148.68,290.33,148.65,290.93 M152.42,292.77l1.19,0.16c-0.19,0.69-0.53,1.23-1.04,1.61
		c-0.51,0.38-1.15,0.57-1.94,0.57c-0.99,0-1.78-0.31-2.36-0.92c-0.58-0.61-0.87-1.47-0.87-2.57c0-1.14,0.29-2.02,0.88-2.65
		c0.59-0.63,1.35-0.94,2.28-0.94c0.91,0,1.64,0.31,2.22,0.93c0.57,0.62,0.86,1.49,0.86,2.6c0,0.07,0,0.17-0.01,0.31h-5.06
		c0.04,0.74,0.25,1.32,0.63,1.71c0.38,0.39,0.85,0.59,1.42,0.59c0.42,0,0.78-0.11,1.08-0.33
		C152.01,293.62,152.24,293.26,152.42,292.77z"/>
</g>
<g>
	<path d="M155.05,294.97v-6.79h1.03v1.04c0.26-0.48,0.51-0.8,0.73-0.95c0.22-0.15,0.47-0.23,0.74-0.23c0.39,0,0.78,0.12,1.18,0.36
		l-0.41,1.06c-0.28-0.16-0.56-0.24-0.84-0.24c-0.25,0-0.48,0.08-0.67,0.23c-0.2,0.15-0.34,0.36-0.43,0.63
		c-0.13,0.41-0.19,0.86-0.19,1.34v3.55H155.05z"/>
</g>
<g>
	<rect x="111.86" y="373.28" width="10.49" height="25"/>
</g>
<g>
	<path fill="#FFFFFF" d="M117.1,360.13c3.18,0,5.79-2.61,5.79-5.79v-15.75c0-3.19-2.61-5.79-5.8-5.79c-3.18,0-5.79,2.61-5.79,5.79
		v15.75C111.31,357.52,113.92,360.13,117.1,360.13"/>
</g>
</svg>
