<?xml version="1.0" encoding="utf-8"?>
<!-- Generator: Adobe Illustrator 20.0.0, SVG Export Plug-In . SVG Version: 6.00 Build 0)  -->
<svg version="1.1" id="Layer_1" xmlns="http://www.w3.org/2000/svg" xmlns:xlink="http://www.w3.org/1999/xlink" x="0px" y="0px"
	 viewBox="0 0 215.8 461.2" style="enable-background:new 0 0 215.8 461.2;" xml:space="preserve" xmlns:pulse="-">
<style type="text/css">
	.st0{fill:#1A1A18;}
	.st1{fill-rule:evenodd;clip-rule:evenodd;fill:#010101;}
</style>
<g>
	<path class="st0" d="M208,461.2H7.8c-4.3,0-7.8-3.5-7.8-7.8V7.8C0,3.5,3.5,0,7.8,0H208c4.3,0,7.8,3.5,7.8,7.8v445.6
		C215.8,457.7,212.3,461.2,208,461.2z M7.8,4.3c-2,0-3.5,1.6-3.5,3.5v445.6c0,2,1.6,3.5,3.5,3.5H208c2,0,3.5-1.6,3.5-3.5V7.8
		c0-2-1.6-3.5-3.5-3.5H7.8z"/>
</g>
<g>
	<path class="st0" d="M207.6,452.1H8.1V9h199.5V452.1z M10.3,450h195.2V11.2H10.3V450z"/>
</g>
<g>
	<path d="M141.5,85l-63.6-0.1l0,0l-0.2,0c-6.9,0-13.2,2.8-17.7,7.3c-4.5,4.5-7.4,10.8-7.4,17.6l0,0c0,6.9,2.8,13.2,7.3,17.7l0,0
		c4.5,4.5,10.8,7.4,17.7,7.4l63.6,0.1h0.2c6.9,0,13.2-2.8,17.7-7.3c4.5-4.5,7.4-10.8,7.4-17.6v-0.1c0-6.9-2.8-13.2-7.3-17.7l0,0
		C154.6,87.9,148.4,85,141.5,85 M77.7,82.9l63.8,0.1c7.4,0,14.2,3.1,19.1,8l0,0c4.8,4.9,7.9,11.6,7.9,18.9l0,0v0.2
		c0,7.5-3.1,14.2-8,19.1c-4.9,4.8-11.6,7.9-18.9,7.9l0,0l-0.2,0L77.6,137c-7.4,0-14.2-3.1-19.1-8l0,0c-4.8-4.9-7.9-11.6-7.9-18.9
		l0,0l0-0.2c0-7.5,3.1-14.2,8-19.1c4.9-4.8,11.6-7.9,18.9-7.9l0,0H77.7z"/>
</g>
<g>
	<path class="st1" d="M153.5,377.6c-1.6,1.5-2.9,2.5-4.5,3.2c1.4-1.4,2.7-2.9,3.8-4.6c4.5-7,7-14.5,4.8-22.9
		c-0.9-3.2-3.3-6.3-6.3-7.7c2.5-0.3,4.7,0.2,6.5,1.1C166.5,352.1,163.8,367,153.5,377.6 M132.3,377.6c0.1,0.5,0.2,0.9,0.4,1.3
		c-1.1,0.9-2.2,1.6-3.4,2.1C130.4,380,131.4,378.8,132.3,377.6z M138.1,353.3c-0.9-3.2-3.3-6.3-6.3-7.7c2.2-0.3,4.3,0,6,0.7
		c-0.7,0.3-1.3,0.7-2,1.1c0.8-0.4,1.5-0.7,2.2-1c0.2,0.1,0.3,0.1,0.5,0.2c8.7,5.5,6,20.3-4.3,30.9c-0.3-0.5-0.5-1.1-0.7-1.7
		C138,368.9,140.3,361.6,138.1,353.3z M147.5,346.3c-0.7,0.3-1.3,0.7-2,1.1c0.8-0.4,1.5-0.7,2.2-1c0.2,0.1,0.3,0.1,0.5,0.2
		c8.7,5.5,6,20.4-4.3,30.9c-1.6,1.5-2.9,2.5-4.5,3.2c1.4-1.4,2.7-2.9,3.8-4.6c4.6-7,7-14.5,4.8-22.9c-0.9-3.2-3.3-6.3-6.3-7.7
		C143.8,345.3,145.8,345.6,147.5,346.3z M167.2,353.3c-0.9-3.4-3.5-6.6-6.7-7.9c-2.7-1-6.3-1.2-10.1-0.2c-2.6-0.9-6.1-1-9.6,0
		c-2.7-0.9-6.1-1-9.8,0c-3.8-1.3-9.4-1.1-14.6,2.1c4.5-2.3,8.7-2.3,11.7-1c-0.6,0.3-1.2,0.6-1.9,1c0.7-0.4,1.4-0.7,2.1-0.9
		c0.1,0.1,0.2,0.1,0.4,0.2c8.7,5.5,6.1,20.2-4.1,30.7c-1.3-2.9-1.8-6.9-1.3-12.2c-1.4,5.5-1.3,10-0.2,13.6c-1.5,1.2-2.8,2-4.4,2.6
		c-4-2.1-5.7-7.5-5-16.2c-1.9,7.5-1.1,13.3,1.4,17c-8.4,1.1-12.4-4.6-11.3-17c-4.1,16.2,4.3,24.7,16.5,21.2c2.7,1,6.1,1.1,9.7,0
		c2.7,1,6,1,9.6,0c2.8,1,6.3,1,10.1-0.1c6.3-2.1,9.8-5.7,12.8-10C167,369.2,169.4,361.7,167.2,353.3z"/>
</g>
<g>
	<path class="st1" d="M53.1,367.9c0.2-1,1.2-1.5,3-1.5c1.8,0,2.7,0.5,2.7,1.5L53.1,367.9L53.1,367.9z M59.9,366.4
		c-0.9-0.5-2.1-0.7-3.7-0.7c-1.7,0-3,0.3-4.1,0.8c-1.1,0.5-1.6,1.2-1.6,2c0,0.9,0.6,1.5,1.8,2.1c1.2,0.5,2.8,0.8,4.7,0.8
		c1.1,0,2.5-0.1,4.1-0.3v-0.8c-1.4,0.2-2.6,0.3-3.6,0.3c-2.7,0-4.2-0.7-4.6-1.9l8.2,0l0-0.3C61.2,367.5,60.8,366.8,59.9,366.4z"/>
</g>
<g>
	<path class="st1" d="M71.7,370c-1.1,0.4-2.1,0.5-3.1,0.5c-0.6,0-1.1-0.1-1.5-0.2c-0.4-0.2-0.6-0.4-0.6-0.6c0-0.3,0.4-0.6,1.2-0.8
		c0.8-0.2,1.9-0.3,3.2-0.3l0.8,0L71.7,370L71.7,370z M75.3,370.7c-0.8,0-1.3-0.3-1.3-0.9l0-2.5c0-0.6-0.3-1-1-1.3
		c-0.7-0.3-1.8-0.4-3.2-0.4c-1.4,0-2.9,0.1-4.5,0.4v0.8c1.5-0.3,2.8-0.5,4.1-0.5c1.6,0,2.3,0.3,2.3,1v0.7h-0.6c-2.2,0-4,0.2-5.2,0.5
		c-1.2,0.3-1.8,0.8-1.8,1.4c0,0.4,0.4,0.8,1.1,1.1c0.7,0.3,1.6,0.4,2.7,0.4c1.3,0,2.7-0.3,4.1-0.8c0.3,0.5,1,0.8,2.1,0.8
		c0.7,0,1.2-0.1,1.8-0.2l-0.2-0.5C75.6,370.7,75.4,370.7,75.3,370.7z"/>
</g>
<g>
	<path class="st1" d="M86.4,368.8c-0.5-0.3-1.5-0.5-2.7-0.7l-1.1-0.2c-1.2-0.2-1.7-0.5-1.7-0.8c0-0.5,0.8-0.7,2.3-0.7
		c0.8,0,1.8,0.1,3.2,0.2v-0.8l-0.5,0c-1.1-0.1-2-0.1-2.7-0.1c-1.4,0-2.5,0.1-3.3,0.4c-0.8,0.3-1.2,0.7-1.2,1.1c0,0.7,1,1.2,3.1,1.5
		L83,369c1.3,0.2,1.9,0.5,1.9,0.8c0,0.2-0.2,0.4-0.7,0.6c-0.4,0.2-1,0.2-1.7,0.2c-1.2,0-2.5-0.2-4-0.5v0.9c1.5,0.2,2.9,0.3,3.9,0.3
		c1.4,0,2.6-0.2,3.5-0.5c0.9-0.3,1.4-0.7,1.4-1.2C87.2,369.3,87,369,86.4,368.8"/>
</g>
<g>
	<polygon class="st1" points="95.6,369.9 91.9,365.8 89.3,365.8 94.4,371.2 92.2,373.2 94.7,373.2 101.8,365.8 99.6,365.8 	"/>
</g>
<g>
	<polygon class="st1" points="66.2,360.7 66.2,352.8 62.5,352.8 62.5,356 55.2,356 55.2,352.8 51.6,352.8 51.6,360.7 55.2,360.7
		55.2,357.1 62.5,357.1 62.5,360.7 	"/>
</g>
<g>
	<path class="st1" d="M82.2,358.9c-0.9,0.5-2.2,0.8-3.7,0.8c-1.5,0-2.7-0.3-3.6-0.8c-0.9-0.6-1.4-1.3-1.4-2.2c0-0.9,0.5-1.7,1.4-2.2
		c0.9-0.6,2.1-0.8,3.7-0.8c1.5,0,2.7,0.3,3.7,0.8c0.9,0.6,1.4,1.3,1.4,2.2C83.5,357.6,83.1,358.4,82.2,358.9 M85,353.7
		c-1.6-0.7-3.8-1.1-6.5-1.1c-2.7,0-4.9,0.4-6.5,1.1c-1.6,0.7-2.4,1.8-2.4,3c0,1.3,0.8,2.3,2.4,3c1.6,0.8,3.7,1.1,6.4,1.1
		c2.8,0,5-0.4,6.6-1.1c1.6-0.7,2.4-1.8,2.4-3C87.4,355.4,86.6,354.4,85,353.7z"/>
</g>
<g>
	<polygon class="st1" points="93.6,354.6 97.9,360.1 100.8,360.1 105.1,354.7 105.1,360.7 108.5,360.7 108.5,352.8 104.2,352.8
		99.9,358.3 95.6,352.8 90.7,352.8 90.7,360.7 93.6,360.7 	"/>
</g>
<g>
	<polygon class="st1" points="124.5,359.5 116.6,359.5 116.6,357.1 122.6,357.1 122.6,356.1 116.6,356.1 116.6,353.9 124,353.9
		124,352.8 112.9,352.8 112.9,360.7 124.5,360.7 	"/>
</g>
<g>
	<path d="M117.8,27.1c-2.1-2.1-5-3.4-8.2-3.4c-3.2,0-6.1,1.3-8.2,3.4c-2.1,2.1-3.4,5-3.4,8.2c0,3.2,1.3,6.1,3.4,8.2
		c2.1,2.1,5,3.4,8.2,3.4c3.2,0,6.1-1.3,8.2-3.4c2.1-2.1,3.4-5,3.4-8.2C121.2,32.1,119.9,29.2,117.8,27.1 M109.6,21.9
		c3.7,0,7.1,1.5,9.5,3.9c2.4,2.4,3.9,5.8,3.9,9.5s-1.5,7.1-3.9,9.5s-5.8,3.9-9.5,3.9c-3.7,0-7.1-1.5-9.5-3.9
		c-2.4-2.4-3.9-5.8-3.9-9.5c0-3.7,1.5-7.1,3.9-9.5C102.5,23.4,105.9,21.9,109.6,21.9z"/>
</g>
<g>
	<path d="M117.8,27.1c-2.1-2.1-5-3.4-8.2-3.4c-3.2,0-6.1,1.3-8.2,3.4c-2.1,2.1-3.4,5-3.4,8.2c0,3.2,1.3,6.1,3.4,8.2
		c2.1,2.1,5,3.4,8.2,3.4c3.2,0,6.1-1.3,8.2-3.4c2.1-2.1,3.4-5,3.4-8.2C121.2,32.1,119.9,29.2,117.8,27.1 M109.6,21.9
		c3.7,0,7.1,1.5,9.5,3.9c2.4,2.4,3.9,5.8,3.9,9.5s-1.5,7.1-3.9,9.5s-5.8,3.9-9.5,3.9c-3.7,0-7.1-1.5-9.5-3.9
		c-2.4-2.4-3.9-5.8-3.9-9.5c0-3.7,1.5-7.1,3.9-9.5C102.5,23.4,105.9,21.9,109.6,21.9z"/>
</g>
<g>
	<path class="st0" d="M109.6,76.3c-1.2,0-2.1-1-2.1-2.1V55.7c0-1.2,1-2.1,2.1-2.1c1.2,0,2.1,1,2.1,2.1v18.5
		C111.7,75.4,110.8,76.3,109.6,76.3z"/>
</g>
<g>
	<path d="M141.5,184l-63.6-0.1l0,0l-0.2,0c-6.9,0-13.2,2.8-17.7,7.3c-4.5,4.5-7.4,10.8-7.4,17.6l0,0c0,6.9,2.8,13.2,7.3,17.7l0,0
		c4.5,4.5,10.8,7.4,17.7,7.4l63.6,0.1h0.2c6.9,0,13.2-2.8,17.7-7.3c4.5-4.5,7.4-10.8,7.4-17.6v-0.1c0-6.9-2.8-13.2-7.3-17.7l0,0
		C154.6,186.9,148.4,184,141.5,184 M77.7,181.9l63.8,0.1c7.4,0,14.2,3.1,19.1,8l0,0c4.8,4.9,7.9,11.6,7.9,18.9l0,0v0.2
		c0,7.5-3.1,14.2-8,19.1c-4.9,4.8-11.6,7.9-18.9,7.9l0,0l-0.2,0L77.6,236c-7.4,0-14.2-3.1-19.1-8l0,0c-4.8-4.9-7.9-11.6-7.9-18.9
		l0,0l0-0.2c0-7.5,3.1-14.2,8-19.1c4.9-4.8,11.6-7.9,18.9-7.9l0,0H77.7z"/>
</g>
<g>
	<path class="st0" d="M109.6,175.3c-6.3,0-11.4-5.1-11.4-11.4s5.1-11.4,11.4-11.4c6.3,0,11.4,5.1,11.4,11.4S115.9,175.3,109.6,175.3
		z M109.6,156.9c-3.9,0-7.1,3.2-7.1,7.1s3.2,7.1,7.1,7.1s7.1-3.2,7.1-7.1S113.5,156.9,109.6,156.9z"/>
</g>
<g>
	<path pulse:initial="true" pulse:state="1" d="M77.7,89.6l63.8,0.1c5.6,0,10.7,2.3,14.4,6c3.6,3.7,5.9,8.7,5.9,14.2l0,0v0.2c0,5.6-2.3,10.7-6,14.4
		c-3.7,3.7-8.8,6-14.4,5.9l-63.8-0.1c-5.6,0-10.7-2.3-14.4-6c-3.7-3.7-6-8.8-5.9-14.4l0,0l0,0c0-5.6,2.3-10.6,6-14.3
		C67,91.9,72.1,89.6,77.7,89.6"/>
</g>
<g>
	<path d="M109.6,24.9c2.9,0,5.5,1.2,7.4,3c1.9,1.9,3,4.5,3,7.4s-1.2,5.5-3,7.4c-1.9,1.9-4.5,3-7.4,3
		c-2.9,0-5.5-1.2-7.4-3c-1.9-1.9-3-4.5-3-7.4s1.2-5.5,3-7.4C104.1,26.1,106.7,24.9,109.6,24.9"/>
</g>
<g>
	<path pulse:state="0" d="M77.7,188.6l63.8,0.1c5.6,0,10.7,2.3,14.4,6c3.6,3.7,5.9,8.7,5.9,14.2l0,0v0.2c0,5.6-2.3,10.7-6,14.4
		c-3.7,3.7-8.8,6-14.4,5.9l-63.8-0.1c-5.6,0-10.7-2.3-14.4-6c-3.7-3.7-6-8.8-5.9-14.4l0,0l0,0c0-5.6,2.3-10.6,6-14.3
		C67,190.9,72.1,188.6,77.7,188.6"/>
</g>
</svg>
