<?xml version="1.0" encoding="utf-8"?>
<!-- Generator: Adobe Illustrator 20.0.0, SVG Export Plug-In . SVG Version: 6.00 Build 0)  -->
<svg version="1.1" id="Layer_1" xmlns="http://www.w3.org/2000/svg" xmlns:xlink="http://www.w3.org/1999/xlink" x="0px" y="0px"
	 viewBox="0 0 209.46 75.91" style="enable-background:new 0 0 209.46 75.91;" xml:space="preserve">
<style type="text/css">
	.st0{fill:#010101;}
</style>
<g>
	<path class="st0" d="M207.97,15.67c-1.61-6.04-6.26-11.76-11.99-14.12c-4.78-1.81-11.25-2.2-17.97-0.29
		c-4.68-1.55-10.79-1.8-17.12,0c-4.75-1.57-10.96-1.8-17.38,0.08c-6.84-2.35-16.83-1.9-26.1,3.76c8.02-4.13,15.42-4.1,20.92-1.79
		c-1.11,0.53-2.22,1.12-3.31,1.79c1.24-0.64,2.47-1.17,3.68-1.62c0.21,0.09,0.42,0.18,0.63,0.29c15.44,9.72,10.8,35.93-7.36,54.76
		c-2.36-5.08-3.18-12.32-2.4-21.73c-2.45,9.73-2.36,17.9-0.36,24.22c-2.6,2.16-4.96,3.59-7.89,4.63
		c-7.11-3.73-10.17-13.35-8.87-28.84c-3.34,13.28-1.98,23.66,2.58,30.38c-15.02,1.91-22.04-8.26-20.19-30.38
		c-7.25,28.84,7.62,44.01,29.42,37.7c4.87,1.83,10.79,1.92,17.34,0.07c4.83,1.76,10.67,1.82,17.12,0
		c5.03,1.83,11.16,1.84,17.94-0.23c11.16-3.83,17.39-10.19,22.77-17.84C207.55,43.99,211.96,30.69,207.97,15.67z M172.79,3.2
		c-1.18,0.55-2.36,1.18-3.53,1.89c1.34-0.69,2.66-1.25,3.95-1.72c0.29,0.12,0.57,0.25,0.85,0.38c15.54,9.78,10.75,36.28-7.71,55.13
		c-2.87,2.66-5.24,4.46-7.95,5.77c2.55-2.48,4.74-5.23,6.8-8.16c8.11-12.51,12.51-25.81,8.52-40.83
		c-1.54-5.78-5.87-11.26-11.25-13.79C166.31,1.47,169.82,2,172.79,3.2z M156.11,15.67c-1.53-5.75-5.81-11.19-11.15-13.74
		c4-0.49,7.64,0.03,10.71,1.27c-1.18,0.55-2.36,1.18-3.53,1.89c1.34-0.69,2.66-1.25,3.95-1.72c0.29,0.12,0.57,0.25,0.85,0.38
		c15.53,9.78,10.75,36.25-7.68,55.1c-0.46-0.95-0.87-1.98-1.22-3.08C155.85,43.48,160.03,30.4,156.11,15.67z M145.78,58.97
		c0.19,0.81,0.41,1.6,0.66,2.36c-2.02,1.64-3.93,2.83-6.09,3.75C142.34,63.19,144.12,61.14,145.78,58.97z M183.48,58.89
		c-2.87,2.66-5.24,4.46-7.95,5.77c2.55-2.48,4.74-5.23,6.8-8.16c8.11-12.51,12.51-25.81,8.52-40.83
		c-1.54-5.78-5.87-11.26-11.25-13.79c4.41-0.47,8.37,0.29,11.6,1.88C206.73,13.54,201.93,40.04,183.48,58.89z"/>
	<path class="st0" d="M16.73,38.92c-1.54-0.84-3.72-1.25-6.53-1.25c-2.98,0-5.42,0.47-7.33,1.42C0.95,40.03,0,41.24,0,42.72
		c0,1.52,1.08,2.75,3.25,3.71c2.17,0.95,4.97,1.43,8.4,1.43c2.02,0,4.44-0.18,7.27-0.54v-1.4c-2.56,0.39-4.72,0.59-6.48,0.59
		c-4.81,0-7.52-1.16-8.13-3.47h14.7l0.02-0.55C19.03,40.95,18.26,39.76,16.73,38.92z M4.51,41.71C4.88,39.9,6.69,39,9.93,39
		c3.23,0,4.85,0.91,4.85,2.72H4.51z"/>
	<path class="st0" d="M44.18,46.63c-1.49,0-2.23-0.51-2.23-1.52V40.7c0-1.03-0.62-1.8-1.86-2.29s-3.16-0.74-5.76-0.74
		c-2.49,0-5.16,0.24-8,0.73v1.46c2.59-0.57,5-0.86,7.23-0.86c2.77,0,4.16,0.57,4.16,1.7v1.17h-1.01c-3.99,0-7.06,0.29-9.19,0.86
		c-2.14,0.57-3.21,1.39-3.21,2.45c0,0.77,0.64,1.41,1.91,1.92c1.27,0.5,2.88,0.76,4.81,0.76c2.35,0,4.79-0.49,7.32-1.46
		c0.54,0.97,1.8,1.46,3.78,1.46c1.16,0,2.22-0.1,3.18-0.29l-0.3-0.98C44.64,46.61,44.37,46.63,44.18,46.63z M37.72,45.43
		c-1.9,0.65-3.73,0.98-5.49,0.98c-1.03,0-1.9-0.15-2.62-0.44s-1.07-0.65-1.07-1.08c0-0.6,0.72-1.08,2.15-1.45
		c1.43-0.37,3.3-0.55,5.62-0.55l1.42,0.02V45.43z"/>
	<path class="st0" d="M63.96,43.23c-0.96-0.45-2.59-0.88-4.89-1.29l-2.04-0.36c-2.06-0.37-3.09-0.81-3.09-1.35
		c0-0.83,1.36-1.24,4.08-1.24c1.39,0,3.26,0.15,5.62,0.44v-1.47l-0.88-0.07c-1.92-0.15-3.53-0.22-4.83-0.22
		c-2.5,0-4.47,0.24-5.91,0.73s-2.16,1.16-2.16,2c0,1.19,1.82,2.1,5.47,2.74l2.47,0.44c2.25,0.4,3.37,0.89,3.37,1.5
		c0,0.41-0.4,0.76-1.2,1.03c-0.8,0.28-1.81,0.41-3.03,0.41c-2.05,0-4.45-0.29-7.21-0.86v1.62c2.76,0.38,5.11,0.57,7.04,0.57
		c2.52,0,4.58-0.28,6.2-0.83c1.62-0.55,2.42-1.25,2.42-2.11C65.4,44.25,64.92,43.68,63.96,43.23z"/>
	<polygon class="st0" points="80.35,45.23 73.68,37.89 69.11,37.89 78.12,47.63 74.35,51.17 78.75,51.17 91.47,37.89 87.48,37.89 	
		"/>
	<polygon class="st0" points="27.97,28.76 27.97,14.71 21.42,14.71 21.42,20.41 8.41,20.41 8.41,14.71 1.86,14.71 1.86,28.76 
		8.41,28.76 8.41,22.35 21.42,22.35 21.42,28.76 	"/>
	<path class="st0" d="M61.48,16.35c-2.89-1.33-6.76-1.99-11.62-1.99c-4.89,0-8.78,0.66-11.65,1.99c-2.88,1.33-4.32,3.12-4.32,5.38
		c0,2.23,1.43,4.02,4.3,5.37c2.86,1.34,6.68,2.01,11.46,2.01c5,0,8.95-0.66,11.83-1.98c2.88-1.32,4.33-3.13,4.33-5.42
		C65.8,19.46,64.36,17.68,61.48,16.35z M56.39,25.7c-1.64,0.98-3.86,1.48-6.67,1.48c-2.67,0-4.81-0.5-6.44-1.5
		c-1.63-1-2.45-2.31-2.45-3.95c0-1.65,0.82-2.97,2.46-3.96c1.64-0.99,3.82-1.48,6.56-1.48c2.71,0,4.88,0.49,6.53,1.48
		c1.64,0.99,2.47,2.3,2.47,3.93C58.85,23.38,58.03,24.71,56.39,25.7z"/>
	<polygon class="st0" points="76.84,18.01 84.37,27.82 89.64,27.82 97.32,18.15 97.32,28.76 103.36,28.76 103.36,14.71 95.74,14.71 
		87.94,24.59 80.37,14.71 71.69,14.71 71.69,28.76 76.84,28.76 	"/>
	<polygon class="st0" points="131.89,26.77 117.77,26.77 117.77,22.44 128.53,22.44 128.53,20.56 117.77,20.56 117.77,16.63 
		130.89,16.63 130.89,14.71 111.22,14.71 111.22,28.76 131.89,28.76 	"/>
</g>
</svg>
