<?xml version="1.0" encoding="utf-8"?>
<!-- Generator: Adobe Illustrator 20.0.0, SVG Export Plug-In . SVG Version: 6.00 Build 0)  -->
<svg version="1.1" id="Layer_1" xmlns="http://www.w3.org/2000/svg" xmlns:xlink="http://www.w3.org/1999/xlink" x="0px" y="0px"
	 viewBox="0 0 119.72 405.21" style="enable-background:new 0 0 119.72 405.21;" xml:space="preserve" xmlns:pulse="-" xmlns:onclick="-">
<style type="text/css">
	.st0{fill-rule:evenodd;clip-rule:evenodd;}
	.st1{fill-rule:evenodd;clip-rule:evenodd;fill:#010101;}
	.st2{fill:#1A1A18;}
</style>
<path class="st0" d="M110.01,402.42c2.81-0.22,4.94-0.51,6.36-0.93c1.17-0.34,1.76-0.69,1.76-1.06v-69.36
	c-0.41,0.39-0.92,0.69-1.59,0.92c-1.33,0.46-3.32,0.61-6.52,0.57L110.01,402.42L110.01,402.42z M25.45,400.44
	c-0.01,0.56-0.01,1.11-0.01,1.66c0,0.24,0,0.54,0,0.9l0.07,0l0.43,0.01l0.12,0l0.32,0.01l0.41,0.01l0.02,0l0,0l0.44,0.01l0.27,0
	l0.17,0h0l0.45,0.01l0.12,0l0.33,0.01l0.43,0.01h0.02l0.01,0l0.46,0.01l0.28,0l0.18,0l0.47,0.01l0,0l0.13,0l0.34,0.01l0.45,0.01l0,0
	l0.02,0l0.48,0.01l0.3,0l0.19,0l0.49,0.01l0.14,0l0.35,0.01l0.47,0.01l0,0h0.02l0.5,0.01l0.31,0l0.19,0l0.51,0.01l0.15,0l0.36,0.01
	l0.49,0.01l0.01,0l0.02,0l0.51,0.01l0.33,0l0.2,0l0.52,0.01l0.16,0l0.37,0.01l0.51,0.01h0.01h0.02l0.53,0.01h0l0.34,0.01l0.2,0
	l0.54,0.01l0.16,0h0l0.38,0.01l0.53,0.01h0.01l0.02,0l0.55,0.01l0.35,0.01l0,0l0.2,0l0.56,0.01l0.17,0l0.39,0.01l0.55,0.01l0.01,0
	l0.01,0l0.56,0.01l0.37,0.01l0.21,0l0.58,0.01l0.18,0l0.4,0.01l0.57,0.01h0.01l0.01,0l0.58,0.01l0.38,0.01l0.21,0l0.6,0.01l0.19,0h0
	l0.41,0.01l0.59,0.01h0h0.01l0.61,0.01l0.4,0.01l0.21,0l0.61,0.01l0.2,0l0.42,0.01l0.62,0.01h0.01h0.01l0.62,0.01l0.41,0.01l0.22,0
	l0.63,0.01l0.21,0l0.43,0.01l0.64,0.01h0.03h0v0l0.62,0.01l0.43,0.01l0.22,0.01l0.65,0.02l0.22,0.01l0.44,0.01l0.64,0.02l0.66-0.02
	l0.42-0.01l0.26-0.01l0.67-0.02l0,0l0.15,0l0.52-0.01l0.56-0.01l0,0l0.1,0l0.66-0.02l0.3-0.01l0.35-0.01l0.65-0.02l0.05,0l1.05-0.02
	l0.2,0l0.64-0.01l0.2,0l0.44-0.01l0.59-0.01l0,0l0.05,0l0.63-0.01l0.34-0.01l0.29-0.01h0l0.62-0.01l0.09,0l0.52-0.01l0.47-0.01
	l0.14,0l0.61-0.01l0.23,0l0.38-0.01l0.6-0.01l0.01,0l0,0v0l0.59-0.01l0.37-0.01l0.23,0l0.59-0.01l0.13,0l0.45-0.01l0.49-0.01l0.09,0
	l0.58-0.01l0.27,0l0.31-0.01l0.57-0.01l0.04,0h0l0.53-0.01l0.39-0.01l0.17,0h0l0.56-0.01l0.17,0l0.39-0.01l0.51-0.01l0.04,0
	l0.55-0.01l0.29,0l0.25,0l0.54-0.01l0.08,0l0,0l0.46-0.01l0.41-0.01l0.12,0l0.53-0.01l0.2,0l0.33,0l0.52-0.01l0.01,0h0v0l0.51-0.01
	l0.32,0l0.2,0l0.51-0.01l0.12,0l0.39-0.01l0.42-0.01l0.08,0l0,0l0.5-0.01l0.23,0l0.27,0l0.49-0.01l0.04,0l0.45-0.01l0.33-0.01
	l0.15,0h0l0.48-0.01l0.14,0l0.33-0.01l0.43-0.01l0.04,0l0.47-0.01l0.25,0l0.22,0l0.46-0.01l0.07,0l0.39-0.01l0.35-0.01l0.11,0
	l0.45-0.01l0.17,0l0.28-0.01l0.44-0.01l0.01,0h0v0l0.06,0c0-0.35,0-0.64,0-0.88c0-0.55-0.01-1.11-0.02-1.66
	c-0.2-16.59-1.97-33.79-7.19-46.83c-5.19-12.95-13.8-21.78-27.72-21.78c-13.91,0-22.53,8.84-27.72,21.78
	C27.42,366.65,25.65,383.85,25.45,400.44z M24.7,402.1c0-0.56,0.01-1.12,0.02-1.67c0.2-16.67,1.98-33.96,7.24-47.1
	c5.3-13.23,14.12-22.25,28.4-22.25s23.1,9.03,28.4,22.25c5.26,13.14,7.04,30.43,7.24,47.1c0.01,0.55,0.01,1.11,0.01,1.67l0,0.87
	c2.68-0.05,5.14-0.12,7.37-0.2c2.17-0.08,4.12-0.17,5.87-0.3v-69.92H92.08c-4.03,0-7.33-2.17-11.14-4.68
	c-5.11-3.35-11.15-7.33-21.08-7.33c-9.93,0-15.97,3.97-21.08,7.33c-3.82,2.51-7.12,4.68-11.14,4.68H10.56v69.93
	c1.85,0.13,3.93,0.23,6.24,0.31c2.39,0.08,5.02,0.14,7.89,0.2L24.7,402.1z M118.13,329.88v-0.75V2.75c-0.09-0.13-0.7-0.3-1.81-0.52
	c-1.45-0.29-3.55-0.5-6.31-0.62v330.21c3.12,0.04,5.04-0.1,6.29-0.53C117.17,330.99,117.71,330.53,118.13,329.88z M1.59,329.88
	c0.41,0.65,0.95,1.1,1.83,1.4c1.26,0.43,3.21,0.57,6.4,0.53V1.6C7.01,1.73,4.87,1.94,3.4,2.23c-1.11,0.22-1.71,0.4-1.81,0.52v326.38
	V329.88z M10.56,331.81h17.08c3.81,0,7.02-2.11,10.74-4.55c5.19-3.41,11.34-7.45,21.48-7.45c10.14,0,16.29,4.04,21.48,7.45
	c3.71,2.44,6.93,4.55,10.74,4.55h17.18V1.59h-98.7V331.81z M9.82,332.56c-3.27,0.04-5.29-0.11-6.63-0.57
	c-0.67-0.23-1.18-0.53-1.59-0.92v69.36c0,0.38,0.6,0.73,1.78,1.07c1.44,0.41,3.59,0.71,6.44,0.93L9.82,332.56z M116.81,403.02
	c-1.61,0.47-3.99,0.79-7.11,1.02c-1.79,0.13-3.88,0.23-6.24,0.32c-2.32,0.08-4.92,0.15-7.78,0.2h0l-0.44,0.01l-0.01,0h0v0
	l-0.43,0.01l-0.28,0.01l-0.17,0l-0.45,0.01l-0.11,0l-0.35,0.01l-0.39,0.01l-0.07,0l-0.46,0.01l-0.22,0l-0.25,0l-0.47,0.01l-0.04,0
	l-0.43,0.01l-0.33,0.01l-0.14,0h0l-0.48,0.01l-0.15,0l0,0l-0.33,0.01l-0.45,0.01l-0.04,0l-0.49,0.01l-0.27,0l-0.23,0l-0.5,0.01
	l-0.08,0h0l-0.42,0.01l-0.39,0.01l-0.12,0l-0.51,0.01l-0.2,0l-0.32,0l-0.52,0.01l-0.01,0h0v0l-0.51,0.01l-0.33,0l-0.2,0l-0.53,0.01
	l-0.12,0l-0.41,0.01l-0.45,0.01l-0.08,0l0,0l-0.54,0.01l-0.25,0l-0.29,0l-0.55,0.01l-0.04,0l-0.51,0.01l-0.39,0.01l-0.17,0
	l-0.56,0.01l-0.17,0l-0.39,0.01l-0.52,0.01l-0.04,0h0l-0.57,0.01l-0.31,0.01l-0.27,0l-0.58,0.01l-0.09,0l-0.49,0.01l-0.45,0.01
	l-0.14,0l-0.59,0.01l-0.23,0l-0.37,0.01l-0.6,0.01l-0.01,0h0v0l-0.59,0.01l-0.38,0.01l-0.23,0l-0.61,0.01l-0.14,0l-0.47,0.01
	l-0.53,0.01l-0.09,0l-0.62,0.01l-0.29,0.01L69.07,405l-0.63,0.01h0l-0.05,0l-0.59,0.01l-0.44,0.01l-0.2,0l-0.64,0.01l-0.2,0
	l-1.05,0.02l-0.05,0l-0.65,0.01l-0.35,0.01l-0.3,0.01l-0.66,0.02l-0.1,0l-0.56,0.01l-0.52,0.01l-0.01,0l-0.15,0l-0.67,0.02
	l-0.26,0.01l-0.42,0.01l-0.68,0.02l-0.04,0l-0.66-0.02l-0.44-0.01l-0.22-0.01l-0.65-0.02l-0.22-0.01l-0.43-0.01l-0.64-0.01l-0.03,0
	h0v0l-0.6-0.01l-0.43-0.01l-0.21,0l-0.63-0.01l-0.22,0l-0.41-0.01l-0.62-0.01l-0.01,0h-0.01l-0.61-0.01l-0.42-0.01l-0.2,0
	l-0.61-0.01l-0.21,0l-0.4-0.01L50.36,405h-0.01l-0.59-0.01l0,0l-0.41-0.01l-0.19,0l-0.6-0.01l-0.21,0l-0.38-0.01l-0.59-0.01h-0.01
	l-0.01,0l-0.56-0.01l-0.4-0.01l-0.18,0l-0.58-0.01l-0.21,0l-0.37-0.01l-0.57-0.01l-0.01,0l-0.01,0l-0.54-0.01l-0.39-0.01l-0.17,0
	l-0.56-0.01l-0.2,0l-0.35-0.01l0,0l-0.55-0.01h-0.01h-0.02l-0.52-0.01h0l-0.38-0.01l-0.16,0l-0.54-0.01h0l-0.2,0l-0.34-0.01
	l-0.53-0.01l-0.01,0h-0.02l-0.51-0.01l-0.37-0.01l-0.16,0l-0.52-0.01l-0.19,0l-0.33,0l-0.52-0.01l-0.01,0l-0.02,0l-0.49-0.01
	l-0.36-0.01l-0.15,0l-0.51-0.01l-0.19,0l-0.31,0l-0.5-0.01h0l-0.02,0l-0.47-0.01l-0.35-0.01l-0.14,0l-0.49-0.01l-0.19,0l-0.3,0
	l-0.48-0.01l0,0l-0.02,0l-0.45-0.01l-0.34-0.01l0,0l-0.13,0l-0.47-0.01l-0.18,0h0l-0.28,0l-0.46-0.01h-0.02l-0.01,0l-0.43-0.01
	l-0.33-0.01l-0.12,0l-0.45-0.01l-0.17,0l0,0l-0.27,0l-0.44-0.01h-0.02h0l-0.41-0.01l-0.32-0.01l-0.12,0l-0.43-0.01l-0.17,0l-0.26,0
	c-3.06-0.06-5.83-0.12-8.3-0.21c-2.52-0.09-4.73-0.19-6.62-0.33c-3.16-0.23-5.56-0.55-7.19-1.02c-1.96-0.57-2.94-1.4-2.94-2.6v-71.3
	V2.65V2.59l0.01-0.07c0.15-0.85,1.17-1.47,3.08-1.85C4.67,0.35,6.99,0.13,10.05,0l0.03,0h0.11h99.45l0.03,0
	c3.06,0.13,5.38,0.35,6.96,0.67c1.9,0.38,2.93,0.99,3.08,1.84l0.01,0.07v0.06v326.49v71.3
	C119.72,401.62,118.74,402.46,116.81,403.02"/>
<path class="st0" d="M42.26,73.44c1.55,0,2.96,0.63,3.98,1.65c1.02,1.02,1.65,2.42,1.65,3.98c0,1.55-0.63,2.96-1.65,3.98
	c-1.02,1.02-2.42,1.65-3.98,1.65c-1.55,0-2.96-0.63-3.98-1.65c-1.02-1.02-1.65-2.42-1.65-3.98c0-1.55,0.63-2.96,1.65-3.98
	C39.3,74.07,40.71,73.44,42.26,73.44"/>
<path class="st0" d="M61.1,112.88h-1.11v-7.09c-0.27,0.26-0.62,0.51-1.05,0.77c-0.43,0.26-0.83,0.45-1.17,0.57v-1.08
	c0.62-0.29,1.17-0.64,1.63-1.06c0.47-0.42,0.8-0.82,0.99-1.21h0.72V112.88z"/>
<path class="st0" d="M62.86,148.92v1.06h-6c-0.01-0.27,0.04-0.53,0.13-0.77c0.15-0.41,0.4-0.81,0.74-1.2
	c0.34-0.39,0.82-0.85,1.45-1.37c0.98-0.81,1.65-1.45,1.99-1.92c0.35-0.47,0.53-0.92,0.53-1.34c0-0.44-0.16-0.81-0.47-1.12
	c-0.32-0.3-0.73-0.45-1.24-0.45c-0.54,0-0.97,0.16-1.29,0.48c-0.32,0.32-0.49,0.76-0.49,1.33l-1.14-0.11
	c0.08-0.85,0.37-1.5,0.88-1.95c0.51-0.45,1.2-0.67,2.06-0.67c0.87,0,1.56,0.24,2.06,0.72c0.51,0.48,0.76,1.08,0.76,1.79
	c0,0.36-0.07,0.72-0.22,1.07c-0.15,0.35-0.39,0.72-0.74,1.11c-0.35,0.39-0.92,0.92-1.71,1.59c-0.67,0.56-1.1,0.94-1.29,1.14
	c-0.19,0.2-0.35,0.4-0.47,0.6L62.86,148.92z"/>
<path class="st0" d="M56.89,185.05l1.11-0.15c0.13,0.63,0.34,1.09,0.65,1.37c0.31,0.28,0.68,0.42,1.13,0.42
	c0.53,0,0.97-0.18,1.33-0.54c0.36-0.36,0.54-0.81,0.54-1.35c0-0.51-0.17-0.93-0.5-1.27c-0.33-0.33-0.76-0.5-1.27-0.5
	c-0.21,0-0.47,0.04-0.79,0.12l0.12-0.97c0.07,0.01,0.13,0.01,0.18,0.01c0.48,0,0.9-0.12,1.28-0.37c0.38-0.25,0.57-0.63,0.57-1.14
	c0-0.41-0.14-0.74-0.42-1.01c-0.28-0.27-0.63-0.4-1.07-0.4c-0.43,0-0.8,0.14-1.08,0.41c-0.29,0.27-0.47,0.69-0.56,1.23l-1.11-0.2
	c0.14-0.75,0.44-1.33,0.93-1.74c0.48-0.41,1.08-0.62,1.8-0.62c0.49,0,0.95,0.1,1.36,0.32c0.42,0.21,0.74,0.5,0.95,0.86
	c0.22,0.37,0.33,0.75,0.33,1.17c0,0.39-0.11,0.74-0.31,1.07c-0.21,0.32-0.52,0.58-0.93,0.77c0.54,0.12,0.95,0.38,1.25,0.77
	c0.29,0.39,0.44,0.88,0.44,1.46c0,0.79-0.29,1.46-0.86,2.01c-0.58,0.55-1.31,0.82-2.19,0.82c-0.8,0-1.45-0.24-1.98-0.71
	C57.27,186.42,56.97,185.8,56.89,185.05"/>
<path class="st0" d="M60.49,225.97v-2.16h-3.93v-1.02l4.14-5.87h0.91v5.87h1.23v1.02H61.6v2.16H60.49z M60.49,222.78v-4.08
	l-2.84,4.08H60.49z"/>
<path pulse:unit="0001" pulse:state="1" pulse:initial="true" class="st0" d="M39.52,114.93c-16.01,0-16.66,19.69,0,19.69l11.12-0.05v-19.63L39.52,114.93L39.52,114.93z"/>
<path pulse:unit="0010" pulse:state="1" class="st0" d="M39.52,152.53c-16.01,0-16.66,19.69,0,19.69l11.12-0.05v-19.63L39.52,152.53L39.52,152.53z"/>
<path pulse:unit="0011" pulse:state="1" class="st0" d="M39.52,189.28c-16.01,0-16.66,19.69,0,19.69l11.12-0.06v-19.63L39.52,189.28L39.52,189.28z"/>
<path pulse:unit="0100" pulse:state="1" class="st0" d="M39.52,227.72c-16.01,0-16.66,19.69,0,19.69l11.12-0.05v-19.63H39.52z"/>
<path pulse:unit="0000" pulse:state="1" class="st0" d="M39.52,265.31c-16.01,0-16.66,19.69,0,19.69l11.12-0.05v-19.63H39.52z"/>
<path pulse:unit="0001" pulse:state="0" class="st0" d="M79.86,114.93c16.01,0,16.66,19.69,0,19.69l-11.12-0.05v-19.63L79.86,114.93L79.86,114.93z"/>
<path pulse:unit="0010" pulse:state="0" class="st0" d="M79.86,152.53c16.01,0,16.66,19.69,0,19.69l-11.12-0.05v-19.63L79.86,152.53L79.86,152.53z"/>
<path pulse:unit="0011" pulse:state="0" class="st0" d="M79.86,189.28c16.01,0,16.66,19.69,0,19.69l-11.12-0.06v-19.63L79.86,189.28L79.86,189.28z"/>
<path pulse:unit="0100" pulse:state="0" class="st0" d="M79.86,227.72c16.01,0,16.66,19.69,0,19.69l-11.12-0.05v-19.63H79.86z"/>
<path pulse:unit="0000" pulse:state="0" class="st0" d="M79.86,265.31c16.01,0,16.66,19.69,0,19.69l-11.12-0.05v-19.63H79.86z"/>
<path class="st1" d="M75.68,33.98c-0.53,0.49-0.97,0.83-1.47,1.07c0.47-0.46,0.88-0.97,1.26-1.51c1.5-2.32,2.32-4.78,1.58-7.56
	c-0.29-1.07-1.09-2.08-2.08-2.55c0.82-0.09,1.55,0.05,2.15,0.35C79.99,25.59,79.1,30.49,75.68,33.98 M68.7,34
	c0.04,0.15,0.08,0.3,0.12,0.44c-0.37,0.3-0.73,0.52-1.13,0.69C68.07,34.78,68.4,34.4,68.7,34z M70.62,25.98
	c-0.28-1.06-1.08-2.07-2.06-2.54c0.74-0.09,1.41,0.01,1.98,0.24c-0.22,0.1-0.44,0.22-0.65,0.35c0.25-0.13,0.49-0.23,0.73-0.32
	c0.05,0.02,0.11,0.05,0.16,0.07c2.87,1.81,1.99,6.71-1.42,10.2c-0.09-0.18-0.16-0.37-0.23-0.57C70.57,31.13,71.34,28.71,70.62,25.98
	z M73.7,23.67c-0.22,0.1-0.44,0.22-0.65,0.35c0.25-0.13,0.49-0.23,0.73-0.32c0.05,0.02,0.11,0.05,0.16,0.07
	c2.88,1.81,1.99,6.72-1.43,10.21c-0.53,0.49-0.97,0.83-1.47,1.07c0.47-0.46,0.88-0.97,1.26-1.51c1.5-2.32,2.32-4.78,1.58-7.56
	c-0.29-1.07-1.09-2.08-2.08-2.55C72.51,23.35,73.16,23.45,73.7,23.67z M80.22,25.98c-0.3-1.12-1.16-2.18-2.22-2.61
	c-0.89-0.33-2.08-0.41-3.33-0.05c-0.87-0.29-2-0.33-3.17,0c-0.88-0.29-2.03-0.33-3.22,0.01c-1.27-0.44-3.12-0.35-4.83,0.7
	c1.48-0.76,2.85-0.76,3.87-0.33c-0.21,0.1-0.41,0.21-0.61,0.33c0.23-0.12,0.46-0.22,0.68-0.3c0.04,0.02,0.08,0.03,0.12,0.05
	c2.86,1.8,2,6.65-1.36,10.14c-0.44-0.94-0.59-2.28-0.44-4.02c-0.45,1.8-0.44,3.31-0.07,4.48c-0.48,0.4-0.92,0.66-1.46,0.86
	c-1.32-0.69-1.88-2.47-1.64-5.34c-0.62,2.46-0.37,4.38,0.48,5.62c-2.78,0.35-4.08-1.53-3.74-5.62c-1.34,5.34,1.41,8.15,5.45,6.98
	c0.9,0.34,2,0.36,3.21,0.01c0.89,0.33,1.98,0.34,3.17,0c0.93,0.34,2.07,0.34,3.32-0.04c2.07-0.71,3.22-1.89,4.22-3.3
	C80.14,31.23,80.96,28.76,80.22,25.98z"/>
<path class="st1" d="M42.55,30.8c0.07-0.34,0.4-0.5,1-0.5c0.6,0,0.9,0.17,0.9,0.5L42.55,30.8L42.55,30.8z M44.81,30.29
	c-0.28-0.16-0.69-0.23-1.21-0.23c-0.55,0-1,0.09-1.36,0.26c-0.36,0.17-0.53,0.4-0.53,0.67c0,0.28,0.2,0.51,0.6,0.69
	c0.4,0.18,0.92,0.26,1.56,0.26c0.37,0,0.82-0.03,1.35-0.1v-0.26c-0.47,0.07-0.87,0.11-1.2,0.11c-0.89,0-1.39-0.21-1.51-0.64h2.72
	l0-0.1C45.24,30.66,45.1,30.44,44.81,30.29z"/>
<path class="st1" d="M48.7,31.49c-0.35,0.12-0.69,0.18-1.02,0.18c-0.19,0-0.35-0.03-0.49-0.08c-0.13-0.05-0.2-0.12-0.2-0.2
	c0-0.11,0.13-0.2,0.4-0.27c0.26-0.07,0.61-0.1,1.04-0.1l0.26,0L48.7,31.49L48.7,31.49z M49.89,31.71c-0.28,0-0.41-0.09-0.41-0.28
	v-0.82c0-0.19-0.11-0.33-0.34-0.42c-0.23-0.09-0.59-0.14-1.07-0.14c-0.46,0-0.96,0.04-1.48,0.14v0.27c0.48-0.11,0.93-0.16,1.34-0.16
	c0.51,0,0.77,0.11,0.77,0.31v0.22h-0.19c-0.74,0-1.31,0.05-1.7,0.16c-0.4,0.11-0.59,0.26-0.59,0.45c0,0.14,0.12,0.26,0.35,0.36
	c0.24,0.09,0.53,0.14,0.89,0.14c0.44,0,0.89-0.09,1.36-0.27c0.1,0.18,0.33,0.27,0.7,0.27c0.21,0,0.41-0.02,0.59-0.05l-0.06-0.18
	C49.98,31.71,49.93,31.71,49.89,31.71z"/>
<path class="st1" d="M53.56,31.09c-0.18-0.08-0.48-0.16-0.91-0.24l-0.38-0.07c-0.38-0.07-0.57-0.15-0.57-0.25
	c0-0.15,0.25-0.23,0.76-0.23c0.26,0,0.6,0.03,1.04,0.08v-0.27l-0.16-0.01c-0.36-0.03-0.65-0.04-0.89-0.04
	c-0.46,0-0.83,0.04-1.09,0.14c-0.27,0.09-0.4,0.21-0.4,0.37c0,0.22,0.34,0.39,1.01,0.51l0.46,0.08c0.42,0.07,0.62,0.16,0.62,0.28
	c0,0.08-0.07,0.14-0.22,0.19c-0.15,0.05-0.34,0.08-0.56,0.08c-0.38,0-0.82-0.05-1.33-0.16v0.3c0.51,0.07,0.95,0.11,1.3,0.11
	c0.47,0,0.85-0.05,1.15-0.15c0.3-0.1,0.45-0.23,0.45-0.39C53.82,31.27,53.73,31.17,53.56,31.09"/>
<polygon class="st1" points="56.59,31.46 55.36,30.1 54.51,30.1 56.18,31.9 55.48,32.56 56.29,32.56 58.65,30.1 57.91,30.1 "/>
<polygon class="st1" points="46.89,28.41 46.89,25.81 45.68,25.81 45.68,26.86 43.27,26.86 43.27,25.81 42.06,25.81 42.06,28.41
	43.27,28.41 43.27,27.22 45.68,27.22 45.68,28.41 "/>
<path class="st1" d="M52.16,27.84c-0.3,0.18-0.71,0.27-1.23,0.27c-0.49,0-0.89-0.09-1.19-0.28c-0.3-0.19-0.45-0.43-0.45-0.73
	c0-0.31,0.15-0.55,0.46-0.73c0.3-0.18,0.71-0.27,1.21-0.27c0.5,0,0.9,0.09,1.21,0.27c0.3,0.18,0.46,0.43,0.46,0.73
	C52.61,27.41,52.46,27.66,52.16,27.84 M53.1,26.11c-0.53-0.25-1.25-0.37-2.15-0.37c-0.91,0-1.63,0.12-2.16,0.37
	c-0.53,0.25-0.8,0.58-0.8,1c0,0.41,0.26,0.74,0.8,0.99c0.53,0.25,1.24,0.37,2.12,0.37c0.93,0,1.66-0.12,2.19-0.37
	c0.53-0.24,0.8-0.58,0.8-1C53.9,26.68,53.63,26.36,53.1,26.11z"/>
<polygon class="st1" points="55.94,26.42 57.34,28.23 58.31,28.23 59.73,26.44 59.73,28.41 60.85,28.41 60.85,25.81 59.44,25.81
	58,27.63 56.59,25.81 54.99,25.81 54.99,28.41 55.94,28.41 "/>
<polygon class="st1" points="66.13,28.04 63.52,28.04 63.52,27.24 65.51,27.24 65.51,26.89 63.52,26.89 63.52,26.16 65.95,26.16
	65.95,25.81 62.31,25.81 62.31,28.41 66.13,28.41 "/>
<path class="st2" d="M45.13,261.64v-5.17h1.03l1.22,3.66c0.11,0.34,0.2,0.6,0.25,0.77c0.06-0.19,0.15-0.46,0.28-0.83l1.24-3.6h0.92
	v5.17H49.4v-4.33l-1.51,4.33h-0.62l-1.49-4.41v4.41H45.13z"/>
<path class="st2" d="M52.08,259.51h1.76l-0.54-1.43c-0.16-0.44-0.29-0.8-0.37-1.08c-0.07,0.34-0.17,0.67-0.29,1L52.08,259.51z
	 M50.59,261.64l1.98-5.17h0.75l2.11,5.17h-0.78l-0.6-1.57h-2.18l-0.56,1.57H50.59z"/>
<path class="st2" d="M55.75,259.97l0.64-0.06c0.03,0.26,0.1,0.47,0.21,0.64c0.11,0.17,0.29,0.3,0.52,0.4
	c0.23,0.1,0.5,0.15,0.79,0.15c0.26,0,0.49-0.04,0.69-0.12c0.2-0.08,0.35-0.19,0.45-0.32c0.1-0.14,0.15-0.28,0.15-0.44
	c0-0.16-0.05-0.3-0.14-0.42c-0.09-0.12-0.25-0.22-0.47-0.3c-0.14-0.05-0.45-0.14-0.92-0.25c-0.48-0.11-0.81-0.22-1-0.32
	c-0.25-0.13-0.43-0.29-0.55-0.48c-0.12-0.19-0.18-0.41-0.18-0.64c0-0.26,0.07-0.51,0.22-0.73c0.15-0.23,0.36-0.4,0.65-0.52
	c0.28-0.12,0.6-0.18,0.95-0.18c0.38,0,0.72,0.06,1.01,0.19c0.29,0.12,0.52,0.3,0.68,0.55c0.16,0.24,0.24,0.51,0.25,0.82l-0.66,0.05
	c-0.03-0.33-0.15-0.57-0.36-0.74c-0.2-0.17-0.5-0.25-0.9-0.25c-0.41,0-0.72,0.08-0.91,0.23c-0.19,0.15-0.28,0.33-0.28,0.55
	c0,0.19,0.07,0.34,0.2,0.46c0.13,0.12,0.48,0.24,1.03,0.37c0.56,0.13,0.94,0.24,1.14,0.33c0.3,0.14,0.52,0.31,0.67,0.53
	c0.14,0.21,0.21,0.46,0.21,0.73c0,0.28-0.08,0.53-0.24,0.78c-0.16,0.24-0.38,0.43-0.68,0.57c-0.3,0.14-0.63,0.2-1,0.2
	c-0.47,0-0.86-0.07-1.17-0.2c-0.32-0.14-0.56-0.34-0.74-0.62C55.86,260.63,55.76,260.32,55.75,259.97"/>
<polygon class="st2" points="62.11,261.64 62.11,257.07 60.41,257.07 60.41,256.46 64.5,256.46 64.5,257.07 62.8,257.07
	62.8,261.64 "/>
<polygon class="st2" points="65.22,261.64 65.22,256.46 68.96,256.46 68.96,257.07 65.91,257.07 65.91,258.66 68.76,258.66
	68.76,259.27 65.91,259.27 65.91,261.03 69.08,261.03 69.08,261.64 "/>
<path class="st2" d="M70.73,258.75h1.47c0.31,0,0.56-0.03,0.73-0.1c0.18-0.06,0.31-0.17,0.4-0.31c0.09-0.14,0.14-0.3,0.14-0.46
	c0-0.24-0.09-0.45-0.27-0.6c-0.18-0.16-0.46-0.24-0.84-0.24h-1.63V258.75z M70.04,261.64v-5.17h2.29c0.46,0,0.81,0.05,1.05,0.14
	c0.24,0.09,0.43,0.26,0.57,0.49c0.14,0.23,0.21,0.49,0.21,0.78c0,0.37-0.12,0.68-0.36,0.93c-0.24,0.25-0.6,0.41-1.1,0.48
	c0.18,0.09,0.32,0.17,0.41,0.26c0.2,0.18,0.39,0.41,0.57,0.69l0.89,1.41h-0.85l-0.68-1.08c-0.2-0.31-0.36-0.55-0.49-0.71
	c-0.13-0.17-0.25-0.28-0.35-0.35c-0.1-0.06-0.21-0.11-0.31-0.14c-0.08-0.02-0.2-0.02-0.38-0.02h-0.79v2.3H70.04z"/>
<rect x="39.59" y="289.8" class="st2" width="0.99" height="7.5"/>
<path class="st2" d="M76.73,293.54c0,0.9,0.24,1.61,0.73,2.13c0.49,0.52,1.09,0.78,1.83,0.78c0.75,0,1.36-0.26,1.84-0.79
	c0.48-0.52,0.72-1.27,0.72-2.23c0-0.61-0.1-1.14-0.31-1.6c-0.21-0.45-0.51-0.81-0.9-1.06c-0.4-0.25-0.84-0.38-1.34-0.38
	c-0.7,0-1.31,0.24-1.81,0.72C76.98,291.61,76.73,292.42,76.73,293.54 M75.7,293.52c0-1.24,0.34-2.22,1-2.92
	c0.67-0.7,1.53-1.05,2.59-1.05c0.69,0,1.32,0.17,1.87,0.5c0.56,0.33,0.98,0.79,1.27,1.38c0.29,0.59,0.44,1.26,0.44,2.01
	c0,0.76-0.15,1.44-0.46,2.04c-0.31,0.6-0.74,1.05-1.3,1.36c-0.56,0.31-1.17,0.46-1.82,0.46c-0.71,0-1.34-0.17-1.89-0.51
	c-0.56-0.34-0.98-0.8-1.26-1.39C75.85,294.81,75.7,294.18,75.7,293.52z"/>
</svg>
