<?xml version="1.0" encoding="utf-8"?>
<!-- Generator: Adobe Illustrator 20.0.0, SVG Export Plug-In . SVG Version: 6.00 Build 0)  -->
<svg version="1.1" id="Layer_1" xmlns="http://www.w3.org/2000/svg" xmlns:xlink="http://www.w3.org/1999/xlink" x="0px" y="0px"
	 viewBox="0 0 70.6 151.69" style="enable-background:new 0 0 70.6 151.69;" xml:space="preserve" xmlns:pulse="-" xmlns:onclick="-">
<style type="text/css">
	.st0{fill-rule:evenodd;clip-rule:evenodd;}
</style>
<g>
	<path d="M56.96,0.85H13.65c-3.52,0-6.72,1.44-9.04,3.76c-2.32,2.32-3.76,5.52-3.76,9.04v124.4c0,3.52,1.44,6.72,3.76,9.04
		s5.52,3.76,9.04,3.76h43.31c3.52,0,6.72-1.44,9.04-3.76c2.32-2.32,3.76-5.52,3.76-9.04V13.65c0-3.52-1.44-6.72-3.76-9.04
		C63.67,2.29,60.47,0.85,56.96,0.85 M13.65,0h43.31c3.75,0,7.16,1.54,9.64,4.01c2.47,2.47,4.01,5.88,4.01,9.64v124.4
		c0,3.75-1.54,7.16-4.01,9.64c-2.47,2.47-5.88,4.01-9.64,4.01H13.65c-3.75,0-7.16-1.54-9.64-4.01S0,141.8,0,138.05V13.65
		c0-3.75,1.54-7.16,4.01-9.64C6.48,1.54,9.89,0,13.65,0z"/>
</g>
<g>
	<path d="M56.95,4.04H13.65C11,4.04,8.6,5.12,6.86,6.86C5.12,8.6,4.04,11,4.04,13.65v124.4c0,2.64,1.08,5.04,2.82,6.78
		c1.74,1.74,4.14,2.82,6.78,2.82h43.31c2.64,0,5.04-1.08,6.78-2.82c1.74-1.74,2.82-4.14,2.82-6.78V13.65c0-2.64-1.08-5.04-2.82-6.78
		C62,5.12,59.6,4.04,56.95,4.04 M13.65,3.61h43.31c2.76,0,5.27,1.13,7.08,2.95c1.82,1.82,2.95,4.33,2.95,7.08v124.4
		c0,2.76-1.13,5.27-2.95,7.08c-1.82,1.82-4.33,2.95-7.08,2.95H13.65c-2.76,0-5.27-1.13-7.08-2.95c-1.82-1.82-2.95-4.33-2.95-7.08
		V13.65c0-2.76,1.13-5.27,2.95-7.08C8.38,4.74,10.89,3.61,13.65,3.61z"/>
</g>
<g>
	<path d="M35.78,13.85c0.43,0,0.82,0.17,1.1,0.45c0.28,0.28,0.45,0.67,0.45,1.1c0,0.43-0.17,0.82-0.45,1.1
		c-0.28,0.28-0.67,0.45-1.1,0.45c-0.43,0-0.82-0.17-1.1-0.45c-0.28-0.28-0.45-0.67-0.45-1.1c0-0.43,0.17-0.82,0.45-1.1
		C34.96,14.02,35.35,13.85,35.78,13.85"/>
</g>
<g>
	<path d="M37.01,14.17c-0.31-0.31-0.75-0.51-1.23-0.51c-0.48,0-0.92,0.19-1.23,0.51c-0.31,0.31-0.51,0.75-0.51,1.23
		c0,0.48,0.19,0.92,0.51,1.23c0.31,0.31,0.75,0.51,1.23,0.51c0.48,0,0.91-0.19,1.23-0.51c0.31-0.31,0.51-0.75,0.51-1.23
		C37.52,14.92,37.32,14.49,37.01,14.17 M35.78,13.39c0.56,0,1.06,0.23,1.42,0.59c0.36,0.36,0.59,0.87,0.59,1.42
		c0,0.56-0.23,1.06-0.59,1.42c-0.36,0.36-0.87,0.59-1.42,0.59c-0.56,0-1.06-0.23-1.42-0.59c-0.36-0.36-0.59-0.87-0.59-1.42
		c0-0.56,0.23-1.06,0.59-1.42C34.72,13.61,35.22,13.39,35.78,13.39z"/>
</g>
<g>
	<path class="st0" d="M43.56,115.96c-0.3,0.28-0.55,0.47-0.83,0.61c0.27-0.26,0.5-0.55,0.71-0.86c0.85-1.31,1.31-2.71,0.89-4.28
		c-0.16-0.61-0.62-1.18-1.18-1.45c0.46-0.05,0.88,0.03,1.22,0.2C46,111.2,45.5,113.98,43.56,115.96 M39.61,115.96
		c0.02,0.08,0.04,0.17,0.07,0.25c-0.21,0.17-0.41,0.3-0.64,0.39C39.25,116.41,39.43,116.19,39.61,115.96z M40.69,111.42
		c-0.16-0.6-0.61-1.17-1.17-1.44c0.42-0.05,0.8,0,1.12,0.13c-0.12,0.06-0.25,0.12-0.37,0.2c0.14-0.07,0.28-0.13,0.41-0.18
		c0.03,0.01,0.06,0.03,0.09,0.04c1.63,1.03,1.13,3.8-0.81,5.78c-0.05-0.1-0.09-0.21-0.13-0.32
		C40.66,114.34,41.1,112.97,40.69,111.42z M42.44,110.11c-0.12,0.06-0.25,0.12-0.37,0.2c0.14-0.07,0.28-0.13,0.41-0.18
		c0.03,0.01,0.06,0.03,0.09,0.04c1.63,1.03,1.13,3.81-0.81,5.78c-0.3,0.28-0.55,0.47-0.83,0.61c0.27-0.26,0.5-0.55,0.71-0.86
		c0.85-1.31,1.31-2.71,0.89-4.28c-0.16-0.61-0.62-1.18-1.18-1.45C41.76,109.93,42.13,109.99,42.44,110.11z M46.13,111.42
		c-0.17-0.63-0.66-1.23-1.26-1.48c-0.5-0.19-1.18-0.23-1.89-0.03c-0.49-0.16-1.13-0.19-1.8,0c-0.5-0.16-1.15-0.19-1.82,0.01
		c-0.72-0.25-1.77-0.2-2.74,0.39c0.84-0.43,1.62-0.43,2.19-0.19c-0.12,0.06-0.23,0.12-0.35,0.19c0.13-0.07,0.26-0.12,0.39-0.17
		c0.02,0.01,0.04,0.02,0.07,0.03c1.62,1.02,1.13,3.77-0.77,5.75c-0.25-0.53-0.33-1.29-0.25-2.28c-0.26,1.02-0.25,1.88-0.04,2.54
		c-0.27,0.23-0.52,0.38-0.83,0.49c-0.75-0.39-1.07-1.4-0.93-3.03c-0.35,1.39-0.21,2.48,0.27,3.19c-1.58,0.2-2.31-0.87-2.12-3.19
		c-0.76,3.03,0.8,4.62,3.09,3.96c0.51,0.19,1.13,0.2,1.82,0.01c0.51,0.18,1.12,0.19,1.8,0c0.53,0.19,1.17,0.19,1.88-0.02
		c1.17-0.4,1.82-1.07,2.39-1.87C46.09,114.39,46.55,113,46.13,111.42z"/>
</g>
<g>
	<path class="st0" d="M24.79,114.15c0.04-0.19,0.23-0.28,0.57-0.28c0.34,0,0.51,0.1,0.51,0.29L24.79,114.15L24.79,114.15z
		 M26.07,113.86c-0.16-0.09-0.39-0.13-0.69-0.13c-0.31,0-0.57,0.05-0.77,0.15c-0.2,0.1-0.3,0.23-0.3,0.38
		c0,0.16,0.11,0.29,0.34,0.39c0.23,0.1,0.52,0.15,0.88,0.15c0.21,0,0.47-0.02,0.76-0.06v-0.15c-0.27,0.04-0.5,0.06-0.68,0.06
		c-0.5,0-0.79-0.12-0.85-0.36h1.54l0-0.06C26.31,114.07,26.23,113.95,26.07,113.86z"/>
</g>
<g>
	<path class="st0" d="M28.27,114.54c-0.2,0.07-0.39,0.1-0.58,0.1c-0.11,0-0.2-0.02-0.27-0.05c-0.08-0.03-0.11-0.07-0.11-0.11
		c0-0.06,0.08-0.11,0.23-0.15c0.15-0.04,0.35-0.06,0.59-0.06l0.15,0L28.27,114.54L28.27,114.54z M28.95,114.67
		c-0.16,0-0.23-0.05-0.23-0.16v-0.46c0-0.11-0.07-0.19-0.19-0.24c-0.13-0.05-0.33-0.08-0.6-0.08c-0.26,0-0.54,0.03-0.84,0.08v0.15
		c0.27-0.06,0.52-0.09,0.76-0.09c0.29,0,0.44,0.06,0.44,0.18v0.12h-0.11c-0.42,0-0.74,0.03-0.96,0.09
		c-0.22,0.06-0.34,0.15-0.34,0.26c0,0.08,0.07,0.15,0.2,0.2c0.13,0.05,0.3,0.08,0.5,0.08c0.25,0,0.5-0.05,0.77-0.15
		c0.06,0.1,0.19,0.15,0.4,0.15c0.12,0,0.23-0.01,0.33-0.03l-0.03-0.1C29,114.67,28.97,114.67,28.95,114.67z"/>
</g>
<g>
	<path class="st0" d="M31.02,114.31c-0.1-0.05-0.27-0.09-0.51-0.14l-0.21-0.04c-0.22-0.04-0.32-0.09-0.32-0.14
		c0-0.09,0.14-0.13,0.43-0.13c0.15,0,0.34,0.02,0.59,0.05v-0.15l-0.09-0.01c-0.2-0.02-0.37-0.02-0.51-0.02
		c-0.26,0-0.47,0.03-0.62,0.08c-0.15,0.05-0.23,0.12-0.23,0.21c0,0.12,0.19,0.22,0.57,0.29l0.26,0.05c0.24,0.04,0.35,0.09,0.35,0.16
		c0,0.04-0.04,0.08-0.13,0.11c-0.08,0.03-0.19,0.04-0.32,0.04c-0.22,0-0.47-0.03-0.76-0.09v0.17c0.29,0.04,0.54,0.06,0.74,0.06
		c0.26,0,0.48-0.03,0.65-0.09c0.17-0.06,0.25-0.13,0.25-0.22C31.17,114.42,31.12,114.36,31.02,114.31"/>
</g>
<g>
	<polygon class="st0" points="32.74,114.52 32.04,113.75 31.56,113.75 32.51,114.77 32.11,115.15 32.57,115.15 33.91,113.75
		33.49,113.75 	"/>
</g>
<g>
	<polygon class="st0" points="27.25,112.79 27.25,111.32 26.56,111.32 26.56,111.92 25.2,111.92 25.2,111.32 24.51,111.32
		24.51,112.79 25.2,112.79 25.2,112.12 26.56,112.12 26.56,112.79 	"/>
</g>
<g>
	<path class="st0" d="M30.23,112.47c-0.17,0.1-0.4,0.16-0.7,0.16c-0.28,0-0.5-0.05-0.68-0.16c-0.17-0.1-0.26-0.24-0.26-0.41
		c0-0.17,0.09-0.31,0.26-0.42c0.17-0.1,0.4-0.15,0.69-0.15c0.28,0,0.51,0.05,0.68,0.15c0.17,0.1,0.26,0.24,0.26,0.41
		C30.49,112.23,30.4,112.37,30.23,112.47 M30.76,111.49c-0.3-0.14-0.71-0.21-1.22-0.21c-0.51,0-0.92,0.07-1.22,0.21
		c-0.3,0.14-0.45,0.33-0.45,0.56c0,0.23,0.15,0.42,0.45,0.56c0.3,0.14,0.7,0.21,1.2,0.21c0.52,0,0.94-0.07,1.24-0.21
		c0.3-0.14,0.45-0.33,0.45-0.57C31.22,111.82,31.06,111.63,30.76,111.49z"/>
</g>
<g>
	<polygon class="st0" points="32.37,111.67 33.16,112.7 33.72,112.7 34.52,111.68 34.52,112.79 35.16,112.79 35.16,111.32
		34.36,111.32 33.54,112.36 32.74,111.32 31.83,111.32 31.83,112.79 32.37,112.79 	"/>
</g>
<g>
	<polygon class="st0" points="38.15,112.59 36.67,112.59 36.67,112.13 37.8,112.13 37.8,111.93 36.67,111.93 36.67,111.52
		38.04,111.52 38.04,111.32 35.98,111.32 35.98,112.79 38.15,112.79 	"/>
</g>
<g>
	<path class="st0" d="M26.01,128.55c-0.18-0.11-0.37-0.17-0.59-0.17c-0.31,0-0.58,0.11-0.8,0.32c-0.22,0.21-0.34,0.57-0.34,1.07
		c0,0.4,0.11,0.71,0.32,0.94c0.21,0.23,0.48,0.34,0.81,0.34c0.33,0,0.6-0.12,0.82-0.35c0.21-0.23,0.32-0.56,0.32-0.99
		c0-0.27-0.05-0.51-0.14-0.71C26.32,128.81,26.19,128.66,26.01,128.55z"/>
	<path class="st0" d="M50.04,129.26c0.06-0.09,0.09-0.19,0.09-0.3c0-0.16-0.06-0.29-0.17-0.39c-0.11-0.1-0.29-0.15-0.54-0.15h-1.05
		v1.1h0.94c0.2,0,0.36-0.02,0.47-0.06C49.9,129.42,49.98,129.35,50.04,129.26z"/>
	<path class="st0" d="M40.18,128.55c-0.18-0.11-0.37-0.17-0.59-0.17c-0.31,0-0.58,0.11-0.8,0.32c-0.22,0.21-0.34,0.57-0.34,1.07
		c0,0.4,0.11,0.71,0.32,0.94c0.21,0.23,0.48,0.34,0.81,0.34c0.33,0,0.6-0.12,0.82-0.35c0.21-0.23,0.32-0.56,0.32-0.99
		c0-0.27-0.05-0.51-0.14-0.71C40.49,128.81,40.36,128.66,40.18,128.55z"/>
	<path class="st0" d="M53.32,128.55c-0.18-0.11-0.37-0.17-0.59-0.17c-0.31,0-0.58,0.11-0.8,0.32c-0.22,0.21-0.34,0.57-0.34,1.07
		c0,0.4,0.11,0.71,0.32,0.94c0.21,0.23,0.48,0.34,0.81,0.34c0.33,0,0.6-0.12,0.82-0.35c0.21-0.23,0.32-0.56,0.32-0.99
		c0-0.27-0.05-0.51-0.14-0.71C53.63,128.81,53.5,128.66,53.32,128.55z"/>
	<path class="st0" d="M15.78,129.26c0.06-0.09,0.09-0.19,0.09-0.3c0-0.16-0.06-0.29-0.17-0.39s-0.29-0.15-0.54-0.15h-1.05v1.1h0.94
		c0.2,0,0.36-0.02,0.47-0.06C15.64,129.42,15.72,129.35,15.78,129.26z"/>
	<path class="st0" d="M54.61,124.65H15.99c-2.78,0-5.06,2.28-5.06,5.06v0c0,2.78,2.28,5.06,5.06,5.06h38.63
		c2.78,0,5.06-2.28,5.06-5.06v0C59.68,126.93,57.4,124.65,54.61,124.65z M16.04,131.38l-0.44-0.69c-0.13-0.2-0.23-0.35-0.32-0.46
		c-0.08-0.11-0.16-0.18-0.22-0.22c-0.06-0.04-0.13-0.07-0.2-0.09c-0.05-0.01-0.13-0.02-0.24-0.02h-0.51v1.47h-0.44v-3.32h1.47
		c0.3,0,0.52,0.03,0.67,0.09c0.15,0.06,0.28,0.16,0.37,0.32c0.09,0.15,0.14,0.32,0.14,0.5c0,0.24-0.08,0.43-0.23,0.6
		c-0.15,0.16-0.39,0.26-0.71,0.31c0.12,0.06,0.2,0.11,0.27,0.17c0.13,0.12,0.25,0.27,0.36,0.44l0.57,0.9H16.04z M19.49,131.38h-2.48
		v-3.32h2.4v0.39h-1.96v1.02h1.83v0.39h-1.83v1.13h2.04V131.38z M23.26,131.38h-0.42v-2.78l-0.97,2.78h-0.4l-0.96-2.83v2.83h-0.42
		v-3.32h0.66l0.79,2.35c0.07,0.22,0.12,0.38,0.16,0.49c0.04-0.12,0.1-0.3,0.18-0.53l0.8-2.31h0.59V131.38z M26.8,130.62
		c-0.14,0.27-0.33,0.47-0.58,0.6c-0.25,0.14-0.52,0.2-0.81,0.2c-0.31,0-0.59-0.08-0.84-0.23c-0.25-0.15-0.43-0.36-0.56-0.62
		c-0.13-0.26-0.19-0.54-0.19-0.83c0-0.55,0.15-0.98,0.44-1.29c0.3-0.31,0.68-0.47,1.15-0.47c0.31,0,0.58,0.07,0.83,0.22
		c0.25,0.15,0.43,0.35,0.56,0.61c0.13,0.26,0.19,0.56,0.19,0.89C27.01,130.06,26.94,130.36,26.8,130.62z M29.95,128.45h-1.09v2.93
		h-0.44v-2.93h-1.09v-0.39h2.63V128.45z M32.89,131.38h-2.48v-3.32h2.4v0.39h-1.96v1.02h1.83v0.39h-1.83v1.13h2.04V131.38z
		 M37.09,131.15c-0.24,0.19-0.53,0.28-0.88,0.28c-0.36,0-0.65-0.07-0.87-0.22c-0.22-0.15-0.39-0.36-0.51-0.63
		c-0.12-0.28-0.18-0.57-0.18-0.89c0-0.35,0.07-0.65,0.2-0.9c0.13-0.26,0.32-0.45,0.56-0.59c0.24-0.13,0.51-0.2,0.8-0.2
		c0.33,0,0.61,0.08,0.84,0.25c0.23,0.17,0.38,0.41,0.47,0.71l-0.43,0.1c-0.08-0.24-0.19-0.42-0.33-0.53
		c-0.15-0.11-0.33-0.17-0.55-0.17c-0.25,0-0.47,0.06-0.64,0.18c-0.17,0.12-0.29,0.29-0.36,0.49c-0.07,0.21-0.1,0.42-0.1,0.64
		c0,0.28,0.04,0.53,0.12,0.74c0.08,0.21,0.21,0.37,0.38,0.47c0.17,0.1,0.36,0.16,0.56,0.16c0.25,0,0.45-0.07,0.62-0.21
		c0.17-0.14,0.29-0.35,0.35-0.63l0.44,0.11C37.5,130.68,37.33,130.96,37.09,131.15z M40.97,130.62c-0.14,0.27-0.33,0.47-0.58,0.6
		c-0.25,0.14-0.52,0.2-0.81,0.2c-0.31,0-0.59-0.08-0.84-0.23c-0.25-0.15-0.43-0.36-0.56-0.62c-0.13-0.26-0.19-0.54-0.19-0.83
		c0-0.55,0.15-0.98,0.44-1.29c0.3-0.31,0.68-0.47,1.15-0.47c0.31,0,0.58,0.07,0.83,0.22c0.25,0.15,0.43,0.35,0.56,0.61
		c0.13,0.26,0.19,0.56,0.19,0.89C41.17,130.06,41.11,130.36,40.97,130.62z M44.35,131.38H43.9l-1.74-2.61v2.61h-0.42v-3.32h0.45
		l1.74,2.61v-2.61h0.42V131.38z M47.47,128.45h-1.09v2.93h-0.44v-2.93h-1.09v-0.39h2.63V128.45z M50.3,131.38l-0.44-0.69
		c-0.13-0.2-0.23-0.35-0.32-0.46c-0.08-0.11-0.16-0.18-0.22-0.22c-0.06-0.04-0.13-0.07-0.2-0.09c-0.05-0.01-0.13-0.02-0.24-0.02
		h-0.51v1.47h-0.44v-3.32h1.47c0.3,0,0.52,0.03,0.67,0.09c0.15,0.06,0.28,0.16,0.37,0.32c0.09,0.15,0.14,0.32,0.14,0.5
		c0,0.24-0.08,0.43-0.23,0.6c-0.15,0.16-0.39,0.26-0.71,0.31c0.12,0.06,0.2,0.11,0.27,0.17c0.13,0.12,0.25,0.27,0.36,0.44l0.57,0.9
		H50.3z M54.11,130.62c-0.14,0.27-0.33,0.47-0.58,0.6c-0.25,0.14-0.52,0.2-0.81,0.2c-0.31,0-0.59-0.08-0.84-0.23
		c-0.25-0.15-0.43-0.36-0.56-0.62c-0.13-0.26-0.19-0.54-0.19-0.83c0-0.55,0.15-0.98,0.44-1.29c0.3-0.31,0.68-0.47,1.15-0.47
		c0.31,0,0.58,0.07,0.83,0.22c0.25,0.15,0.43,0.35,0.56,0.61c0.13,0.26,0.19,0.56,0.19,0.89C54.31,130.06,54.24,130.36,54.11,130.62
		z M56.93,131.38h-2.07v-3.32h0.44v2.93h1.63V131.38z"/>
</g>
<g>
	<path class="st0" d="M36.26,45.4h-0.68v-4.31c-0.16,0.16-0.38,0.31-0.64,0.47c-0.26,0.15-0.5,0.27-0.71,0.35v-0.65
		c0.38-0.18,0.71-0.39,0.99-0.65c0.28-0.25,0.49-0.5,0.6-0.74h0.44V45.4z"/>
</g>
<g>
	<path class="st0" d="M37.33,66.46v0.65h-3.65c0-0.16,0.02-0.32,0.08-0.47c0.09-0.25,0.24-0.49,0.45-0.73
		c0.21-0.24,0.5-0.52,0.88-0.83c0.6-0.49,1-0.88,1.21-1.17c0.21-0.29,0.32-0.56,0.32-0.82c0-0.27-0.1-0.49-0.29-0.68
		c-0.19-0.18-0.44-0.28-0.75-0.28c-0.33,0-0.59,0.1-0.78,0.29c-0.2,0.19-0.3,0.46-0.3,0.81l-0.69-0.07
		c0.05-0.52,0.23-0.91,0.54-1.18c0.31-0.27,0.73-0.41,1.25-0.41c0.53,0,0.95,0.15,1.26,0.44c0.31,0.29,0.46,0.66,0.46,1.09
		c0,0.22-0.04,0.44-0.14,0.65c-0.09,0.21-0.24,0.44-0.45,0.67c-0.21,0.23-0.56,0.56-1.04,0.97c-0.41,0.34-0.67,0.57-0.78,0.69
		c-0.12,0.12-0.21,0.24-0.29,0.37L37.33,66.46z"/>
</g>
<g>
	<path class="st0" d="M33.7,87.87l0.68-0.09c0.08,0.38,0.21,0.66,0.39,0.83c0.19,0.17,0.41,0.25,0.68,0.25
		c0.32,0,0.59-0.11,0.81-0.33c0.22-0.22,0.33-0.49,0.33-0.82c0-0.31-0.1-0.57-0.31-0.77c-0.2-0.2-0.46-0.3-0.77-0.3
		c-0.13,0-0.29,0.03-0.48,0.08l0.08-0.59c0.04,0,0.08,0.01,0.11,0.01c0.29,0,0.55-0.08,0.78-0.23c0.23-0.15,0.35-0.38,0.35-0.69
		c0-0.25-0.08-0.45-0.25-0.62c-0.17-0.16-0.38-0.24-0.65-0.24c-0.26,0-0.48,0.08-0.66,0.25c-0.18,0.17-0.29,0.42-0.34,0.75
		l-0.68-0.12c0.08-0.45,0.27-0.81,0.56-1.06c0.29-0.25,0.66-0.37,1.09-0.37c0.3,0,0.58,0.06,0.83,0.19c0.25,0.13,0.45,0.3,0.58,0.53
		c0.13,0.22,0.2,0.46,0.2,0.71c0,0.24-0.06,0.45-0.19,0.65c-0.13,0.19-0.32,0.35-0.57,0.47c0.33,0.07,0.58,0.23,0.76,0.47
		c0.18,0.24,0.27,0.53,0.27,0.89c0,0.48-0.18,0.89-0.53,1.22c-0.35,0.33-0.79,0.5-1.33,0.5c-0.48,0-0.88-0.14-1.2-0.43
		C33.93,88.7,33.75,88.32,33.7,87.87"/>
</g>
<g pulse:unit="0000" pulse:state="0" >
	<path class="st0" d="M50.55,40.61c-3.02,0-5.48,2.46-5.48,5.48s2.46,5.48,5.48,5.48c3.02,0,5.48-2.46,5.48-5.48
		S53.57,40.61,50.55,40.61z M50.55,50.92c-2.66,0-4.83-2.17-4.83-4.83c0-2.66,2.17-4.83,4.83-4.83s4.83,2.17,4.83,4.83
		C55.38,48.76,53.21,50.92,50.55,50.92z"/>
	<circle class="st0" cx="50.55" cy="46.09" r="4.55"/>
	<path class="st0" d="M50.55,37.73c-4.62,0-8.37,3.75-8.37,8.37c0,4.62,3.75,8.37,8.37,8.37c4.62,0,8.37-3.75,8.37-8.37
		C58.92,41.47,55.17,37.73,50.55,37.73z M50.55,51.86c-3.18,0-5.77-2.59-5.77-5.77s2.59-5.77,5.77-5.77s5.77,2.59,5.77,5.77
		S53.73,51.86,50.55,51.86z"/>
</g>
<g pulse:initial="true" pulse:unit="0000" pulse:state="1">
	<path class="st0" d="M20.85,32.96L20.85,32.96c-0.18,0-0.33,0.15-0.33,0.33v8.88c0,0.18,0.15,0.33,0.33,0.33s0.33-0.15,0.33-0.33
		v-8.88C21.17,33.11,21.03,32.96,20.85,32.96z"/>
	<path class="st0" d="M20.85,29.36c-4.62,0-8.37,3.75-8.37,8.37c0,4.62,3.75,8.37,8.37,8.37s8.37-3.75,8.37-8.37
		C29.21,33.11,25.47,29.36,20.85,29.36z M21.46,42.17c0,0.34-0.27,0.61-0.61,0.61c-0.34,0-0.61-0.27-0.61-0.61v-8.88
		c0-0.34,0.27-0.61,0.61-0.61s0.61,0.27,0.61,0.61V42.17z"/>
</g>
<g pulse:unit="0001" pulse:state="0">
	<path class="st0" d="M50.55,62.5c-3.02,0-5.48,2.46-5.48,5.48s2.46,5.48,5.48,5.48c3.02,0,5.48-2.46,5.48-5.48
		S53.57,62.5,50.55,62.5z M50.55,72.81c-2.66,0-4.83-2.17-4.83-4.83c0-2.66,2.17-4.83,4.83-4.83s4.83,2.17,4.83,4.83
		C55.38,70.64,53.21,72.81,50.55,72.81z"/>
	<circle class="st0" cx="50.55" cy="67.98" r="4.55"/>
	<path class="st0" d="M50.55,59.62c-4.62,0-8.37,3.75-8.37,8.37c0,4.62,3.75,8.37,8.37,8.37c4.62,0,8.37-3.75,8.37-8.37
		C58.92,63.36,55.17,59.62,50.55,59.62z M50.55,73.75c-3.18,0-5.77-2.59-5.77-5.77s2.59-5.77,5.77-5.77s5.77,2.59,5.77,5.77
		S53.73,73.75,50.55,73.75z"/>
</g>
<g pulse:unit="0001" pulse:state="1">
	<path class="st0" d="M20.85,54.85L20.85,54.85c-0.18,0-0.33,0.15-0.33,0.33v8.88c0,0.18,0.15,0.33,0.33,0.33s0.33-0.15,0.33-0.33
		v-8.88C21.17,54.99,21.03,54.85,20.85,54.85z"/>
	<path class="st0" d="M20.85,51.25c-4.62,0-8.37,3.75-8.37,8.37c0,4.62,3.75,8.37,8.37,8.37s8.37-3.75,8.37-8.37
		C29.21,54.99,25.47,51.25,20.85,51.25z M21.46,64.06c0,0.34-0.27,0.61-0.61,0.61c-0.34,0-0.61-0.27-0.61-0.61v-8.88
		c0-0.34,0.27-0.61,0.61-0.61s0.61,0.27,0.61,0.61V64.06z"/>
</g>
<g pulse:unit="0010" pulse:state="0">
	<path class="st0" d="M50.55,84.39c-3.02,0-5.48,2.46-5.48,5.48c0,3.02,2.46,5.48,5.48,5.48c3.02,0,5.48-2.46,5.48-5.48
		C56.03,86.85,53.57,84.39,50.55,84.39z M50.55,94.7c-2.66,0-4.83-2.17-4.83-4.83c0-2.66,2.17-4.83,4.83-4.83s4.83,2.17,4.83,4.83
		C55.38,92.53,53.21,94.7,50.55,94.7z"/>
	<path class="st0" d="M50.55,81.5c-4.62,0-8.37,3.75-8.37,8.37c0,4.62,3.75,8.37,8.37,8.37c4.62,0,8.37-3.75,8.37-8.37
		C58.92,85.25,55.17,81.5,50.55,81.5z M50.55,95.64c-3.18,0-5.77-2.59-5.77-5.77s2.59-5.77,5.77-5.77s5.77,2.59,5.77,5.77
		S53.73,95.64,50.55,95.64z"/>
	<circle class="st0" cx="50.55" cy="89.87" r="4.55"/>
</g>
<g pulse:unit="0010" pulse:state="1">
	<path class="st0" d="M20.85,73.14c-4.62,0-8.37,3.75-8.37,8.37c0,4.62,3.75,8.37,8.37,8.37s8.37-3.75,8.37-8.37
		C29.21,76.88,25.47,73.14,20.85,73.14z M21.46,85.94c0,0.34-0.27,0.61-0.61,0.61c-0.34,0-0.61-0.27-0.61-0.61v-8.88
		c0-0.34,0.27-0.61,0.61-0.61s0.61,0.27,0.61,0.61V85.94z"/>
	<path class="st0" d="M20.85,76.74L20.85,76.74c-0.18,0-0.33,0.15-0.33,0.33v8.88c0,0.18,0.15,0.33,0.33,0.33s0.33-0.15,0.33-0.33
		v-8.88C21.17,76.88,21.03,76.74,20.85,76.74z"/>
</g>
</svg>
