<?xml version="1.0" encoding="utf-8"?>
<!-- Generator: Adobe Illustrator 20.0.0, SVG Export Plug-In . SVG Version: 6.00 Build 0)  -->
<svg version="1.1" id="Layer_1" xmlns="http://www.w3.org/2000/svg" xmlns:xlink="http://www.w3.org/1999/xlink" x="0px" y="0px"
	 viewBox="0 0 249.84 419.65" style="enable-background:new 0 0 249.84 419.65;" xml:space="preserve">
<style type="text/css">
	.st0{fill-rule:evenodd;clip-rule:evenodd;}
</style>
<g>
	<path class="st0" d="M38.49,123.38L38.49,123.38v-0.09c0.43-4.98,1.29-9.79,2.58-14.52l0.09-0.26c0-0.26,0.09-0.52,0.17-0.77
		l0.09-0.26c0-0.26,0.09-0.52,0.17-0.69l0.09-0.34c0.09-0.26,0.17-0.52,0.26-0.77v-0.09l0.09-0.26c0.09-0.17,0.09-0.34,0.17-0.52
		l0.09-0.34l0.09-0.26l0.09-0.26l0.09-0.26v-0.09l0.09-0.26l0.09-0.09c0.09-0.17,0.09-0.43,0.17-0.69l0.09-0.09l0.09-0.26l0.17-0.6
		l0.09-0.26l0.09-0.09c0.09-0.26,0.17-0.43,0.26-0.69v-0.09l0.09-0.26c0.09-0.26,0.17-0.43,0.26-0.69l0.09-0.26
		c0.17-0.26,0.26-0.52,0.34-0.69v-0.09l0.09-0.26l0.26-0.6l0.17-0.43l0.26-0.52l0.17-0.43c0.09-0.26,0.17-0.43,0.26-0.69l0.17-0.26
		c0.09-0.17,0.17-0.43,0.26-0.69l0.17-0.26l0.26-0.6l0.17-0.43c0.09-0.17,0.17-0.34,0.26-0.52l0.26-0.43
		c0.09-0.17,0.17-0.34,0.26-0.6l0.17-0.34c0.09-0.17,0.17-0.34,0.26-0.6l0.09,0l0.09-0.26l0.09-0.09l0.26-0.52l0.17-0.34
		c0.09-0.17,0.26-0.43,0.34-0.6l0.17-0.43l0.34-0.43l0.26-0.52c0.09-0.09,0.17-0.26,0.26-0.43l0.17-0.43
		c0.17-0.17,0.26-0.34,0.34-0.52l1.12-1.89v0.09c3.52-5.58,7.56-10.65,12.2-15.29c15.81-15.81,37.63-25.52,61.69-25.52
		c24.06,0,45.88,9.71,61.69,25.52c15.81,15.81,25.52,37.63,25.52,61.69c0,24.14-9.71,45.88-25.52,61.69
		c-15.81,15.81-37.63,25.6-61.69,25.6c-24.06,0-45.88-9.79-61.69-25.6c-4.64-4.64-8.68-9.71-12.2-15.29v0.09l-1.12-1.89
		c-0.09-0.17-0.17-0.34-0.34-0.52v-0.09l-0.17-0.26c-0.09-0.26-0.26-0.43-0.34-0.69l-0.09-0.09l-0.17-0.26l-0.26-0.43l-0.17-0.34
		c-0.09-0.26-0.26-0.43-0.34-0.6v-0.09l-0.17-0.26c-0.09-0.26-0.26-0.52-0.34-0.77l-0.09,0c-4.04-7.82-6.96-16.32-8.51-25.26v-0.26
		c-0.09-0.26-0.09-0.52-0.17-0.77v-0.09v-0.26l-0.09-0.6l-0.09-0.26v-0.09c0-0.26-0.09-0.52-0.09-0.77v-0.09l-0.09-0.26
		c0-0.26,0-0.52-0.09-0.77v-0.09v-0.34c-0.09-0.26-0.09-0.52-0.09-0.77l-0.09-0.09v-0.52v-0.17c-0.34-2.92-0.43-5.76-0.43-8.76
		C38.23,128.45,38.31,125.87,38.49,123.38 M50.26,122.18V89.19c-5.5,9.97-9.11,21.05-10.31,32.99H50.26z M200.52,89.19v32.99h10.4
		c-0.6-6.19-1.89-12.11-3.78-17.87C205.42,99.07,203.18,94,200.52,89.19z M210.83,140.99h-10.31v31.7
		c2.58-4.55,4.73-9.45,6.44-14.52C208.85,152.68,210.14,146.92,210.83,140.99z M199.92,139.7H211c0.26-2.92,0.43-5.76,0.43-8.76
		c0-2.49-0.17-5.07-0.34-7.56h-11.17h-0.6v-0.6V86.95c-3.69-6.19-8.08-11.77-13.06-16.75c-15.64-15.64-37.11-25.26-60.83-25.26
		c-23.71,0-45.28,9.62-60.83,25.26c-4.98,4.98-9.36,10.65-13.06,16.75v35.83v0.6h-0.6H39.78c-0.17,2.49-0.34,5.07-0.34,7.56
		c0,3.01,0.17,5.84,0.43,8.76h11.08h0.6v0.6v34.62c3.69,6.1,8.08,11.77,13.06,16.84c15.55,15.55,37.11,25.17,60.83,25.17
		c23.71,0,45.19-9.62,60.83-25.17c4.98-5.07,9.36-10.65,13.06-16.75V140.3v-0.6L199.92,139.7L199.92,139.7z M50.26,140.99H40.03
		c1.29,11.43,4.9,22.17,10.22,31.7L50.26,140.99L50.26,140.99z"/>
</g>
<g>
	<path class="st0" d="M93.82,130.94c0-6.88-5.58-12.46-12.46-12.46c-6.88,0-12.46,5.58-12.46,12.46c0,6.88,5.58,12.46,12.46,12.46
		C88.24,143.4,93.82,137.82,93.82,130.94"/>
</g>
<g>
	<path class="st0" d="M181.96,130.94c0-6.88-5.58-12.46-12.46-12.46c-6.88,0-12.46,5.58-12.46,12.46c0,6.88,5.58,12.46,12.46,12.46
		C176.39,143.4,181.96,137.82,181.96,130.94"/>
</g>
<g>
	<path class="st0" d="M132.25,371.97c-1.71-1.71-4.12-2.84-6.82-2.84c-2.7,0-5.12,1.14-6.82,2.84c-1.85,1.85-2.98,4.26-2.98,6.96
		c0,2.7,1.14,5.12,2.98,6.82c1.71,1.85,4.12,2.84,6.82,2.84c2.7,0,5.12-0.99,6.82-2.84c1.85-1.71,2.98-4.12,2.98-6.82
		C135.24,376.23,134.1,373.82,132.25,371.97z M125.43,367.14c3.27,0,6.25,1.28,8.38,3.41c2.13,2.13,3.41,5.12,3.41,8.38
		c0,3.27-1.28,6.25-3.41,8.38c-2.13,2.13-5.12,3.41-8.38,3.41c-3.27,0-6.25-1.28-8.38-3.41c-2.13-2.13-3.41-5.12-3.41-8.38
		c0-3.27,1.28-6.25,3.41-8.38C119.18,368.42,122.16,367.14,125.43,367.14z"/>
</g>
<path d="M125.43,370.16c-4.84,0-8.78,3.94-8.78,8.78s3.94,8.78,8.78,8.78s8.78-3.94,8.78-8.78
	S130.27,370.16,125.43,370.16z"/>
<g>
	<path d="M205.19,419.65H44.65C20.03,419.65,0,399.62,0,375V44.65C0,20.03,20.03,0,44.65,0h160.55c24.62,0,44.65,20.03,44.65,44.65
		V375C249.84,399.62,229.81,419.65,205.19,419.65z M44.65,4.25c-22.27,0-40.39,18.12-40.39,40.39V375
		c0,22.27,18.12,40.39,40.39,40.39h160.55c22.27,0,40.39-18.12,40.39-40.39V44.65c0-22.27-18.12-40.39-40.39-40.39H44.65z"/>
</g>
<g>
	<path d="M205.19,410.08H44.65c-19.34,0-35.08-15.74-35.08-35.08V44.65C9.57,25.3,25.3,9.57,44.65,9.57h160.55
		c19.34,0,35.08,15.74,35.08,35.08V375C240.27,394.34,224.54,410.08,205.19,410.08z M44.65,11.69c-18.17,0-32.95,14.78-32.95,32.95
		V375c0,18.17,14.78,32.95,32.95,32.95h160.55c18.17,0,32.95-14.78,32.95-32.95V44.65c0-18.17-14.78-32.95-32.95-32.95H44.65z"/>
</g>
<g>
	<path d="M125.44,227.77c-53.37,0-96.79-43.42-96.79-96.79c0-53.37,43.42-96.79,96.79-96.79c53.37,0,96.79,43.42,96.79,96.79
		C222.23,184.35,178.81,227.77,125.44,227.77z M125.44,36.32c-52.2,0-94.66,42.47-94.66,94.66c0,52.2,42.47,94.66,94.66,94.66
		c52.2,0,94.66-42.46,94.66-94.66C220.1,78.78,177.64,36.32,125.44,36.32z"/>
</g>
<g>
	<path d="M125.44,218.29c-48.14,0-87.31-39.17-87.31-87.31s39.17-87.31,87.31-87.31s87.31,39.17,87.31,87.31
		S173.58,218.29,125.44,218.29z M125.44,45.8c-46.97,0-85.18,38.21-85.18,85.18s38.21,85.18,85.18,85.18
		c46.97,0,85.18-38.21,85.18-85.18S172.41,45.8,125.44,45.8z"/>
</g>
<g>
	<path class="st0" d="M156.75,336.88c-1.14,1.06-2.08,1.77-3.16,2.29c1.01-0.99,1.88-2.08,2.7-3.24c3.22-4.97,4.97-10.26,3.39-16.23
		c-0.61-2.3-2.33-4.48-4.47-5.48c1.75-0.19,3.33,0.12,4.61,0.75C165.99,318.85,164.08,329.39,156.75,336.88 M141.76,336.91
		c0.08,0.32,0.16,0.64,0.26,0.94c-0.8,0.65-1.56,1.12-2.42,1.49C140.39,338.59,141.1,337.77,141.76,336.91z M145.87,319.7
		c-0.61-2.29-2.31-4.45-4.43-5.46c1.59-0.19,3.04,0.01,4.26,0.5c-0.47,0.22-0.94,0.47-1.4,0.75c0.53-0.27,1.06-0.5,1.57-0.68
		c0.12,0.05,0.23,0.1,0.34,0.15c6.17,3.89,4.27,14.41-3.05,21.91c-0.18-0.38-0.35-0.79-0.49-1.22
		C145.76,330.75,147.43,325.55,145.87,319.7z M152.5,314.74c-0.47,0.22-0.94,0.47-1.4,0.75c0.53-0.27,1.06-0.5,1.57-0.68
		c0.12,0.05,0.23,0.1,0.34,0.15c6.18,3.89,4.27,14.42-3.07,21.92c-1.14,1.06-2.08,1.77-3.16,2.29c1.01-0.99,1.88-2.08,2.7-3.24
		c3.22-4.97,4.97-10.26,3.39-16.23c-0.61-2.3-2.33-4.48-4.47-5.48C149.92,314.05,151.32,314.26,152.5,314.74z M166.48,319.7
		c-0.64-2.4-2.49-4.68-4.77-5.61c-1.9-0.72-4.47-0.87-7.14-0.12c-1.86-0.62-4.29-0.72-6.81,0c-1.89-0.62-4.36-0.72-6.91,0.03
		c-2.72-0.93-6.69-0.76-10.38,1.49c3.19-1.64,6.13-1.63,8.32-0.71c-0.44,0.21-0.88,0.45-1.32,0.71c0.49-0.25,0.98-0.47,1.46-0.64
		c0.08,0.04,0.17,0.07,0.25,0.12c6.14,3.86,4.29,14.28-2.93,21.77c-0.94-2.02-1.26-4.9-0.95-8.64c-0.97,3.87-0.94,7.12-0.14,9.63
		c-1.03,0.86-1.97,1.43-3.14,1.84c-2.83-1.48-4.04-5.31-3.53-11.47c-1.33,5.28-0.79,9.41,1.03,12.08
		c-5.97,0.76-8.76-3.28-8.03-12.08c-2.88,11.47,3.03,17.5,11.7,14.99c1.94,0.73,4.29,0.76,6.89,0.03c1.92,0.7,4.24,0.72,6.81,0
		c2,0.73,4.44,0.73,7.13-0.09c4.44-1.52,6.91-4.05,9.05-7.09C166.32,330.96,168.07,325.67,166.48,319.7z"/>
</g>
<g>
	<path class="st0" d="M85.6,330.05c0.15-0.72,0.87-1.08,2.15-1.08c1.28,0,1.93,0.36,1.93,1.08L85.6,330.05L85.6,330.05z
		 M90.46,328.94c-0.61-0.33-1.48-0.5-2.6-0.5c-1.18,0-2.15,0.19-2.91,0.56c-0.76,0.37-1.14,0.86-1.14,1.44
		c0,0.6,0.43,1.09,1.29,1.48c0.86,0.38,1.98,0.57,3.34,0.57c0.8,0,1.77-0.07,2.89-0.21v-0.56c-1.02,0.16-1.88,0.23-2.58,0.23
		c-1.91,0-2.99-0.46-3.23-1.38h5.84l0.01-0.22C91.37,329.75,91.06,329.27,90.46,328.94z"/>
</g>
<g>
	<path class="st0" d="M98.8,331.53c-0.76,0.26-1.48,0.39-2.18,0.39c-0.41,0-0.76-0.06-1.04-0.18c-0.29-0.12-0.43-0.26-0.43-0.43
		c0-0.24,0.29-0.43,0.85-0.58c0.57-0.15,1.31-0.22,2.23-0.22l0.56,0.01L98.8,331.53L98.8,331.53z M101.37,332.01
		c-0.59,0-0.89-0.2-0.89-0.6v-1.75c0-0.41-0.25-0.72-0.74-0.91c-0.49-0.19-1.26-0.29-2.29-0.29c-0.99,0-2.05,0.1-3.18,0.29v0.58
		c1.03-0.23,1.99-0.34,2.87-0.34c1.1,0,1.65,0.23,1.65,0.68v0.47h-0.4c-1.59,0-2.81,0.12-3.65,0.34c-0.85,0.23-1.28,0.55-1.28,0.97
		c0,0.31,0.25,0.56,0.76,0.76c0.5,0.2,1.14,0.3,1.91,0.3c0.93,0,1.9-0.19,2.91-0.58c0.21,0.39,0.72,0.58,1.5,0.58
		c0.46,0,0.88-0.04,1.26-0.12l-0.12-0.39C101.55,332,101.44,332.01,101.37,332.01z"/>
</g>
<g>
	<path class="st0" d="M109.23,330.65c-0.38-0.18-1.03-0.35-1.94-0.51l-0.81-0.14c-0.82-0.15-1.23-0.32-1.23-0.54
		c0-0.33,0.54-0.49,1.62-0.49c0.55,0,1.3,0.06,2.23,0.17v-0.58l-0.35-0.03c-0.76-0.06-1.4-0.09-1.92-0.09
		c-0.99,0-1.78,0.1-2.35,0.29c-0.57,0.2-0.86,0.46-0.86,0.8c0,0.47,0.72,0.83,2.17,1.09l0.98,0.17c0.89,0.16,1.34,0.35,1.34,0.6
		c0,0.16-0.16,0.3-0.48,0.41c-0.32,0.11-0.72,0.16-1.2,0.16c-0.81,0-1.77-0.12-2.87-0.34v0.64c1.1,0.15,2.03,0.23,2.8,0.23
		c1,0,1.82-0.11,2.47-0.33c0.64-0.22,0.96-0.5,0.96-0.84C109.8,331.06,109.61,330.83,109.23,330.65"/>
</g>
<g>
	<polygon class="st0" points="115.75,331.45 113.1,328.53 111.28,328.53 114.86,332.4 113.36,333.81 115.11,333.81 120.17,328.53
		118.58,328.53 	"/>
</g>
<g>
	<polygon class="st0" points="94.92,324.9 94.92,319.31 92.32,319.31 92.32,321.58 87.15,321.58 87.15,319.31 84.54,319.31
		84.54,324.9 87.15,324.9 87.15,322.35 92.32,322.35 92.32,324.9 	"/>
</g>
<g>
	<path class="st0" d="M106.22,323.68c-0.65,0.39-1.53,0.59-2.65,0.59c-1.06,0-1.91-0.2-2.56-0.6c-0.65-0.4-0.97-0.92-0.97-1.57
		c0-0.66,0.33-1.18,0.98-1.57c0.65-0.39,1.52-0.59,2.61-0.59c1.08,0,1.94,0.19,2.6,0.59c0.65,0.39,0.98,0.91,0.98,1.56
		C107.2,322.76,106.87,323.29,106.22,323.68 M108.25,319.97c-1.15-0.53-2.69-0.79-4.62-0.79c-1.94,0-3.49,0.26-4.63,0.79
		c-1.14,0.53-1.72,1.24-1.72,2.14c0,0.89,0.57,1.6,1.71,2.13c1.14,0.53,2.66,0.8,4.56,0.8c1.99,0,3.56-0.26,4.7-0.79
		c1.15-0.52,1.72-1.24,1.72-2.15C109.96,321.2,109.39,320.5,108.25,319.97z"/>
</g>
<g>
	<polygon class="st0" points="114.35,320.63 117.35,324.53 119.44,324.53 122.49,320.68 122.49,324.9 124.9,324.9 124.9,319.31
		121.87,319.31 118.77,323.24 115.76,319.31 112.31,319.31 112.31,324.9 114.35,324.9 	"/>
</g>
<g>
	<polygon class="st0" points="136.24,324.11 130.62,324.11 130.62,322.39 134.9,322.39 134.9,321.64 130.62,321.64 130.62,320.08
		135.84,320.08 135.84,319.31 128.02,319.31 128.02,324.9 136.24,324.9 	"/>
</g>
</svg>
